<svg xmlns="http://www.w3.org/2000/svg" version="1.1" viewBox="-5.0 -10.0 110.0 135.0">
 <path d="m17.266 10.957h65.473c4.0742 0 7.7734 1.668 10.457 4.3477 2.6836 2.6836 4.3477 6.3867 4.3477 10.457v48.477c0 4.0742-1.6641 7.7734-4.3477 10.457-2.6836 2.6836-6.3867 4.3477-10.457 4.3477h-65.469c-4.0742 0-7.7734-1.668-10.457-4.3477-2.6836-2.6836-4.3477-6.3867-4.3477-10.457v-48.477c0-4.0742 1.6641-7.7734 4.3477-10.457 2.6836-2.6836 6.3867-4.3477 10.457-4.3477zm21.078 31.789 25.465 15.398c0.94531 0.57031 1.25 1.7969 0.67969 2.7422-0.17969 0.29688-0.42188 0.53125-0.70312 0.69141l-25.531 15.441c-0.94531 0.57031-2.1719 0.26562-2.7422-0.67969-0.19531-0.32422-0.28516-0.67969-0.28516-1.0312l-0.003906-30.906c0-1.1055 0.89453-2 2-2 0.41406 0 0.80078 0.125 1.1211 0.34375zm20.57 17.109-19.691-11.91v23.816l19.691-11.91zm21.785-44.898v15.215h12.836v-4.4102c0-2.9688-1.2148-5.6719-3.1719-7.6289-1.957-1.957-4.6602-3.1758-7.6289-3.1758zm-4 15.215v-15.215h-15.133v15.215zm-19.137 0v-15.215h-15.133v15.215zm-19.133 0v-15.215h-15.133v15.215zm-19.137 0v-15.215h-2.0312c-2.9688 0-5.6719 1.2148-7.6289 3.1758-1.957 1.957-3.1719 4.6602-3.1719 7.6289v4.4102h12.836zm74.242 4h-87.078v40.066c0 2.9688 1.2148 5.6719 3.1719 7.6289 1.957 1.957 4.6602 3.1758 7.6289 3.1758h65.469c2.9688 0 5.6719-1.2148 7.6289-3.1758 1.957-1.957 3.1719-4.6602 3.1719-7.6289v-40.066z"/>
</svg>