<svg xmlns="http://www.w3.org/2000/svg" version="1.1" viewBox="-5.0 -10.0 110.0 135.0">
 <path d="m90.344 23.723c0.41406 0 0.8125-0.16406 1.1055-0.45703s0.45703-0.69141 0.45703-1.1055v-14.348c0-0.41406-0.16406-0.8125-0.45703-1.1055s-0.69141-0.45703-1.1055-0.45703h-14.348c-0.41406 0-0.8125 0.16406-1.1055 0.45703s-0.45703 0.69141-0.45703 1.1055v5.6094h-48.867v-5.6094c0-0.41406-0.16406-0.8125-0.45703-1.1055s-0.69141-0.45703-1.1055-0.45703h-14.348c-0.41406 0-0.8125 0.16406-1.1055 0.45703s-0.45703 0.69141-0.45703 1.1055v14.348c0 0.41406 0.16406 0.8125 0.45703 1.1055s0.69141 0.45703 1.1055 0.45703h5.6094v52.555h-5.6094c-0.41406 0-0.8125 0.16406-1.1055 0.45703s-0.45703 0.69141-0.45703 1.1055v14.348c0 0.41406 0.16406 0.8125 0.45703 1.1055s0.69141 0.45703 1.1055 0.45703h14.348c0.41406 0 0.8125-0.16406 1.1055-0.45703s0.45703-0.69141 0.45703-1.1055v-5.6094h48.867v5.6094c0 0.41406 0.16406 0.8125 0.45703 1.1055s0.69141 0.45703 1.1055 0.45703h14.348c0.41406 0 0.8125-0.16406 1.1055-0.45703s0.45703-0.69141 0.45703-1.1055v-14.348c0-0.41406-0.16406-0.8125-0.45703-1.1055s-0.69141-0.45703-1.1055-0.45703h-5.6094v-52.555zm-1.5625-14.348v11.223h-11.223v-11.223zm-77.562 0h11.223v11.223h-11.223zm0 81.25v-11.223h11.223v11.223zm77.562 0h-11.223v-11.223h11.223zm-7.1719-14.348c-8.5508 0.066406-7.0469-1.1641-7.1758 7.1758h-48.867v-5.6133c0-0.41406-0.16406-0.8125-0.45703-1.1055s-0.69141-0.45703-1.1055-0.45703h-5.6133v-52.555c8.5508-0.066406 7.0469 1.1641 7.1758-7.1758h48.867v5.6133c0 0.41406 0.16406 0.8125 0.45703 1.1055s0.69141 0.45703 1.1055 0.45703h5.6133z"/>
 <path d="m67.328 27.109c-1.4805-1.2969-3.4336-1.9258-5.3945-1.7383-1.9609 0.19141-3.7578 1.1797-4.9688 2.7344l-2.5742 3.3672c-0.023437-0.023437-19.371 25.363-19.406 25.367-0.074219 0.14844-0.15234 0.28906-0.23438 0.43359l-4.6875 13.391c-0.29688 0.92188-0.14453 1.9297 0.41797 2.7188 0.55859 0.78906 1.457 1.2695 2.4258 1.2969 0.42578-0.011719 0.84766-0.11719 1.2305-0.30078h28.363c0.85156-0.019531 1.5312-0.71094 1.5312-1.5625 0-0.85156-0.67969-1.5469-1.5312-1.5625h-23.668l7.4727-5.125c0.11719-0.11719 0.23437-0.22656 0.35547-0.33984l19.363-25.312c0.019531-0.015624 0.039062-0.035156 0.046874-0.058593l2.5781-3.375c2.375-3.1094 1.7852-7.5508-1.3203-9.9336zm-11.434 7.5352 6.7188 5.1484-17.484 22.855-6.7148-5.1484zm-22.727 36.609 3.8203-10.91 5.7773 4.4258-9.4492 6.4844zm33-36.105-1.6523 2.1602-6.7188-5.1484c1.0781-1.3516 2.3203-3.582 4.2773-3.6797 3.4375-0.48047 6.4102 3.8008 4.0938 6.6641z"/>
</svg>