<svg xmlns="http://www.w3.org/2000/svg" xmlns:xlink="http://www.w3.org/1999/xlink" version="1.1" x="0px" y="0px" viewBox="0 0 68 85" style="enable-background:new 0 0 68 68;" xml:space="preserve"><g><g><g><path d="M53.3155403,27.5825195c-0.5527344,0-1-0.4472656-1-1V4.4916992c0-0.1914063-0.1494141-0.3408203-0.3408203-0.3408203     H15.9883909c-0.1914063,0-0.3417969,0.1494141-0.3417969,0.3408203v3.8535156c0,0.5527344-0.4472656,1-1,1s-1-0.4472656-1-1     V4.4916992c0-1.2910156,1.0507813-2.3408203,2.3417969-2.3408203H51.97472c1.2910156,0,2.3408203,1.0498047,2.3408203,2.3408203     v22.0908203C54.3155403,27.1352539,53.8682747,27.5825195,53.3155403,27.5825195z"/></g><g><path d="M47.4942513,65.8491211H9.5635862c-0.3837891,0-0.734375-0.2197266-0.9013672-0.5664063     c-0.1660156-0.3457031-0.1201172-0.7568359,0.1191406-1.0566406c0.1601563-0.2011719,0.4462891-0.4003906,0.7011719-0.4355469     c2.1123047-0.2871094,3.7958984-1.9453125,4.09375-4.0322266c0.0126953-0.0869141,0.0361328-0.1708984,0.0703125-0.2509766     V38.2592773c0-0.5527344,0.4472656-1,1-1s1,0.4472656,1,1v21.5595703c0,0.1787109-0.0478516,0.3525391-0.1367188,0.5048828     c-0.2548828,1.3613281-0.9248047,2.5810547-1.8740234,3.5253906h33.8583984c2.6582031,0,4.8212891-2.1630859,4.8212891-4.8212891     V44.9848633c0-0.5527344,0.4472656-1,1-1s1,0.4472656,1,1V59.027832     C54.3155403,62.7895508,51.25597,65.8491211,47.4942513,65.8491211z"/></g><g><path d="M8.8223753,65.8452148c-1.8183594,0-3.53125-0.7109375-4.8212891-2.0009766s-2.0009766-3.0029297-2.0009766-4.8212891     v-7.8886719c0-2.5361328,2.0625-4.5986328,4.5976563-4.5986328h8.046875c0.5527344,0,1,0.4472656,1,1v11.4873047     c0,0.4023438-0.03125,0.7421875-0.0966797,1.0703125c-0.421875,2.9169922-2.8085938,5.2763672-5.7949219,5.6845703     C9.43468,65.8237305,9.1368284,65.8452148,8.8223753,65.8452148z M6.5977659,48.5356445     c-1.4326172,0-2.5976563,1.1660156-2.5976563,2.5986328v7.8886719c0,1.2841797,0.5029297,2.4941406,1.4150391,3.4072266     c1.0712891,1.0703125,2.5527344,1.5830078,4.0605469,1.3662109c2.1142578-0.2880859,3.7978516-1.9511719,4.1025391-4.0439453     c0.0478516-0.2490234,0.0664063-0.4628906,0.0664063-0.7294922V48.5356445H6.5977659z"/></g></g><g><g><path d="M40.9512825,61.5444336c-1.203125,0-2.3847656-0.5859375-3.0947266-1.6640625l0,0l-4.1523438-6.3154297     c-0.3027344-0.4619141-0.1748047-1.0820313,0.2861328-1.3857422l4.5058594-2.9638672     c0.2216797-0.1445313,0.4902344-0.1962891,0.7519531-0.1435547c0.2597656,0.0537109,0.4873047,0.2080078,0.6337891,0.4296875     l4.1533203,6.3154297c1.1191406,1.7041016,0.6445313,4.0009766-1.0576172,5.1210938     C42.3526497,61.3481445,41.6485481,61.5444336,40.9512825,61.5444336z M39.5284309,58.7807617     c0.5136719,0.78125,1.5673828,0.9990234,2.3505859,0.4853516c0.78125-0.5136719,0.9990234-1.5683594,0.484375-2.3505859     l-3.6035156-5.4794922l-2.8349609,1.8652344L39.5284309,58.7807617z"/></g><g><path d="M33.4952278,54.4633789c-0.7226563,0-1.4316406-0.3515625-1.8564453-0.9990234l-5.6425781-8.5791016     c-0.6708984-1.0234375-0.3857422-2.4003906,0.6347656-3.0722656l5.2646484-3.4619141     c0.4951172-0.3232422,1.0878906-0.4375,1.6669922-0.3183594c0.5800781,0.1201172,1.0791016,0.4589844,1.4042969,0.953125     l5.6425781,8.5810547c0.3251953,0.4951172,0.4384766,1.0869141,0.3183594,1.6669922     c-0.1201324,0.5800781-0.4589844,1.0791016-0.9541016,1.4042969l-5.2626953,3.4619141     C34.3360481,54.3461914,33.9131966,54.4633789,33.4952278,54.4633789z M33.1124153,39.9868164     c-0.0351563,0-0.0761719,0.0087891-0.1171875,0.0361328l-5.2646484,3.4619141l0,0     c-0.1005859,0.0654297-0.1289063,0.2011719-0.0625,0.3017578l5.6425781,8.5791016     c0.0644531,0.1005859,0.1992188,0.1289063,0.3017578,0.0625l5.2626953-3.4619141     c0.0634766-0.0410156,0.0859375-0.0966797,0.09375-0.1367188c0.0087891-0.0400391,0.0097656-0.1015625-0.03125-0.1630859     l-5.6425781-8.5810547c-0.0400391-0.0625-0.0966797-0.0859375-0.1376953-0.09375     C33.1446419,39.9887695,33.1290169,39.9868164,33.1124153,39.9868164z M27.1807747,42.6489258h0.0097656H27.1807747z"/></g><g><path d="M39.6046028,48.8569336c-0.3271484,0-0.6455078-0.1601563-0.8369141-0.4501953l-5.3017578-8.0625     c-0.2861328-0.4355469-0.1894531-1.0185547,0.2216797-1.3388672c4.9511719-3.8583984,7.7236328-7.9726563,8.9873047-13.3388672     c0.0917969-0.3886719,0.40625-0.6855469,0.7998047-0.7548828c0.3886719-0.0742188,0.7890625,0.1005859,1.0097656,0.4345703     l12.4199219,18.8876953c0.21875,0.3339844,0.21875,0.7666016-0.0009766,1.0996094     c-0.21875,0.3339844-0.6123047,0.5087891-1.0097656,0.4345703c-5.4296875-0.9658203-10.3056641-0.0517578-15.8095703,2.9658203     C39.9317513,48.8168945,39.7676888,48.8569336,39.6046028,48.8569336z M35.6387825,40.0073242l4.2998047,6.5380859     c4.859375-2.5166016,9.3134766-3.4873047,14.0878906-3.046875L44.0196419,28.2807617     C42.5323372,32.8374023,39.8760872,36.5415039,35.6387825,40.0073242z"/></g><g><path d="M58.1251106,47.1206055c-0.2158203,0-0.4326172-0.0224609-0.6484375-0.0664063     c-0.8300781-0.171875-1.5439606-0.65625-2.0097656-1.3652344l-12.8955078-19.609375     c-0.9609375-1.4628906-0.5537109-3.4345703,0.9091797-4.3955078c0.7080078-0.4648438,1.5566406-0.625,2.3847656-0.4560547     c0.8300781,0.171875,1.5439453,0.65625,2.0097656,1.3652344l12.8955078,19.609375     c0.9609375,1.4628906,0.5537109,3.4345703-0.9091797,4.3955078     C59.3380013,46.9418945,58.7383919,47.1206055,58.1251106,47.1206055z M45.2217903,23.1635742     c-0.2216797,0-0.4453125,0.0615234-0.6435547,0.1923828c-0.5400391,0.3544922-0.6904297,1.0839844-0.3349609,1.625     l12.8955078,19.609375c0.3554688,0.5419922,1.0849609,0.6923828,1.625,0.3359375     c0.5400391-0.3544922,0.6904297-1.0839844,0.3349609-1.625l-12.8955078-19.609375     C45.9786263,23.3491211,45.6036263,23.1635742,45.2217903,23.1635742z"/></g><g><path d="M27.6817513,53.5795898c-0.2480469,0-0.4980469-0.0253906-0.7460938-0.0771484     c-0.9550781-0.1972656-1.7763672-0.7548828-2.3125-1.5693359c-0.5351563-0.8154297-0.7216797-1.7900391-0.5244141-2.7451172     s0.7548828-1.7763672,1.5693359-2.3125l1.9785156-1.3007813c0.2226563-0.1455078,0.4892578-0.1982422,0.7519531-0.1445313     c0.2597656,0.0537109,0.4873047,0.2080078,0.6337891,0.4296875l2.9140625,4.4306641     c0.1455078,0.2216797,0.1972656,0.4921875,0.1435547,0.7519531s-0.2080078,0.4873047-0.4296875,0.6337891l-1.9794922,1.3017578     C29.0772591,53.3745117,28.3868294,53.5795898,27.6817513,53.5795898z M27.9102669,47.7944336l-1.1425781,0.7519531     c-0.7607422,0.5009766-0.9736328,1.5263672-0.4726563,2.2871094c0.2421875,0.3691406,0.6132813,0.6210938,1.0449219,0.7109375     c0.4296875,0.0859375,0.8730469,0.0048828,1.2412109-0.2382813l1.1445313-0.7519531L27.9102669,47.7944336z"/></g><g><path d="M56.8399544,39.0385742c-0.0673828,0-0.1357422-0.0068359-0.2021484-0.0205078     c-0.2597656-0.0537109-0.4873047-0.2089844-0.6337891-0.4296875l-6.6982422-10.1875     c-0.3027344-0.4619141-0.1748047-1.0820313,0.2861328-1.3857422c3.2724609-2.1503906,7.6777344-1.2382813,9.828125,2.0302734     c1.0410156,1.5839844,1.4023438,3.4794922,1.0175781,5.3378906c-0.3847656,1.8564453-1.4677734,3.4511719-3.0478516,4.4912109     C57.22472,38.9819336,57.0333138,39.0385742,56.8399544,39.0385742z M51.5811653,28.2192383l5.4912109,8.3525391     c0.7099609-0.6992188,1.1992188-1.59375,1.40625-2.59375c0.2763672-1.3349609,0.0175781-2.6962891-0.7304688-3.8330078     C56.3936653,28.0844727,53.7891731,27.3286133,51.5811653,28.2192383z"/></g><g><path d="M61.9200325,28.3999023c-0.3251953,0-0.6445313-0.1582031-0.8359375-0.4501953     c-0.3037109-0.4619141-0.1757813-1.0820313,0.2851563-1.3847656l1.2392578-0.8154297     c0.4638672-0.3046875,1.0830078-0.1757813,1.3847656,0.2851563c0.3037071,0.4619141,0.1757774,1.0820313-0.2851563,1.3847656     l-1.2392578,0.8154297C62.2989388,28.347168,62.1085091,28.3999023,61.9200325,28.3999023z"/></g><g><path d="M63.5176888,33.3706055c-0.5253906,0-0.9667969-0.4101563-0.9970703-0.9423828     c-0.0322266-0.5507813,0.3886719-1.0244141,0.9404297-1.0556641l1.4814415-0.0859375     c0.5449219-0.0195313,1.0244141,0.3886719,1.0556641,0.9404297c0.0322266,0.5507813-0.3886719,1.0244141-0.9404373,1.0556641     l-1.4814339,0.0859375C63.5567513,33.3696289,63.53722,33.3706055,63.5176888,33.3706055z"/></g><g><path d="M57.990345,24.965332c-0.1503906,0-0.3037109-0.0341797-0.4482422-0.1064453     c-0.4931641-0.2480469-0.6923828-0.8486328-0.4443359-1.3427734l0.6660156-1.3261719     c0.2480469-0.4921875,0.8457031-0.6923828,1.3427734-0.4443359c0.4931641,0.2480469,0.6923828,0.8486328,0.4443359,1.3427734     l-0.6660156,1.3261719C58.709095,24.7631836,58.3565559,24.965332,57.990345,24.965332z"/></g></g><g><g><path d="M18.9600716,39.8725586c-0.1982422,0-0.3945313-0.0019531-0.5927734-0.0234375     C9.4366331,39.5834961,2.3799925,32.309082,2.3799925,23.293457c0-9.0068359,7.0566406-16.2734375,16.0644531-16.5439453     c0.1162109-0.0166016,0.3154297-0.0185547,0.515625-0.0185547c9.1425781,0,16.5800781,7.4296875,16.5800781,16.5625     C35.5401497,32.4350586,28.1026497,39.8725586,18.9600716,39.8725586z M18.8741341,8.730957     c-0.0957031,0-0.1904297,0.0009766-0.2861328,0.0117188C10.584094,8.9868164,4.3799925,15.3754883,4.3799925,23.293457     c0,7.9277344,6.2041016,14.3232422,14.125001,14.5615234c0.203125,0.0195313,0.3261719,0.0146484,0.4550781,0.0175781     c8.0390625,0,14.5800781-6.5400391,14.5800781-14.5791016c0-8.0302734-6.5410156-14.5625-14.5800781-14.5625     C18.9317513,8.730957,18.9024544,8.730957,18.8741341,8.730957z"/></g><g><path d="M18.9659309,39.8686523c-0.1884766,0-0.3916016-0.0009766-0.5810547-0.0175781     c-4.3886728-0.1347656-8.5146494-2.0048828-11.5634775-5.2617188c-2.8642578-3.0722656-4.4414063-7.0830078-4.4414063-11.2929688     c0-4.2167969,1.5771484-8.2226563,4.4423828-11.2792969c3.0478516-3.2568359,7.1728516-5.1269531,11.6162119-5.265625     c0.1396484-0.0126953,0.3408203-0.0136719,0.5273438-0.0136719c4.6582031,0,8.9667835,1.8759766,12.1328125,5.2822266     c2.8623047,3.0693359,4.4394531,7.0751953,4.4394531,11.2763672c0,4.2099609-1.5771484,8.2207031-4.4404297,11.2910156     C27.9776497,37.9438477,23.5557747,39.8686523,18.9659309,39.8686523z M18.896595,8.737793     c-0.1152344,0-0.2353516,0.0009766-0.3486328,0.0097656c-3.9550791,0.125-7.5839853,1.7705078-10.265626,4.6367188     c-2.5166016,2.6855469-3.9023438,6.2050781-3.9023438,9.9121094c0,3.7021484,1.3857422,7.2285156,3.9033203,9.9277344     c2.6806641,2.8642578,6.3105469,4.5097656,10.2177744,4.6308594c0.1855469,0.0146484,0.3271484,0.0126953,0.4648438,0.0136719     c4.0947266,0,7.8837891-1.6494141,10.6679688-4.6435547c2.5185547-2.7001953,3.9042969-6.2265625,3.9042969-9.9287109     c0-3.6933594-1.3857422-7.2148438-3.9033203-9.9140625C26.8506966,10.387207,23.0616341,8.737793,18.9659309,8.737793     C18.94347,8.737793,18.9200325,8.737793,18.896595,8.737793z"/></g><g><g><path d="M18.9659309,18.6625977c-0.1865234,0-0.3876953-0.0009766-0.5742188-0.015625      c-4.3955088-0.1367188-8.5214853-2.0068359-11.5703135-5.2626953c-0.359375-0.3847656-0.359375-0.9824219,0-1.3671875      c3.0488281-3.2568359,7.1738281-5.1269531,11.6171885-5.2666016c0.1396484-0.0117188,0.3408203-0.0126953,0.5273438-0.0126953      c4.6582031,0,8.9667835,1.8759766,12.1328125,5.2822266c0.3564453,0.3837891,0.3564453,0.9775391,0,1.3613281      C27.9786263,16.737793,23.5557747,18.6625977,18.9659309,18.6625977z M8.9639769,12.7006836      c2.6005859,2.4423828,5.9511719,3.8378906,9.5371103,3.9501953c0.1826172,0.0126953,0.3330078,0.0126953,0.4648438,0.0117188      c3.7734375,0,7.2871094-1.4003906,9.9931641-3.9619141c-2.7060547-2.5625-6.21875-3.9628906-9.9931641-3.9628906      c-0.1328125,0.0019531-0.28125-0.0009766-0.4179688,0.0097656C14.919055,8.8618164,11.5645628,10.2573242,8.9639769,12.7006836z      "/></g><g><path d="M18.9659309,39.8686523c-0.1884766,0-0.3916016-0.0009766-0.5810547-0.0175781      c-4.3886728-0.1347656-8.5146494-2.0048828-11.5634775-5.2617188c-0.359375-0.3847656-0.359375-0.9824219,0-1.3671875      c3.0488281-3.2568359,7.1748047-5.1269531,11.6171885-5.265625c0.1357422-0.0126953,0.3388672-0.0136719,0.5273438-0.0136719      c4.5898438,0,9.0117188,1.9248047,12.1328125,5.2822266c0.3564453,0.3837891,0.3564453,0.9775391,0,1.3613281      C27.9776497,37.9438477,23.5557747,39.8686523,18.9659309,39.8686523z M8.9639769,33.9057617      c2.6005859,2.4433594,5.9511719,3.8378906,9.5371103,3.9492188c0.1855469,0.0146484,0.3271484,0.0126953,0.4648438,0.0136719      c3.7734375,0,7.2861328-1.4003906,9.9931641-3.9628906c-2.7246094-2.5791016-6.2617188-3.9707031-10.0664063-3.9628906      c-0.1123047,0-0.2285156,0.0009766-0.3378906,0.0097656C14.9200315,30.0668945,11.5645628,31.4624023,8.9639769,33.9057617z"/></g></g><g><path d="M18.9600716,39.8725586c-0.0859375,0-0.2089844,0-0.3535156-0.0244141     c-4.4052744-0.3613281-7.718751-7.4550781-7.718751-16.5546875c0-9.0878906,3.3105469-16.171875,7.7138681-16.5361328     c0.1474609-0.0263672,0.2714844-0.0263672,0.3583984-0.0263672c4.5263672,0,8.0722656,7.2753906,8.0722656,16.5625     C27.0323372,32.590332,23.4864388,39.8725586,18.9600716,39.8725586z M18.9600716,8.730957     c-0.0576172,0.0146484-0.0957031,0.0126953-0.1552734,0.0166016c-2.8574228,0.1884766-5.9169931,6.078125-5.9169931,14.5458984     c0,8.4765625,3.0595703,14.3740234,5.9179697,14.5634766c0.0546875,0.0039063,0.1103516,0.0117188,0.1640625,0.0253906     c2.8623047-0.0097656,6.0625-5.9970703,6.0625-14.5888672C25.0323372,14.7114258,21.8321419,8.730957,18.9600716,8.730957z"/></g><g><path d="M34.5381966,24.2963867H3.3799925c-0.5527344,0-1-0.4472656-1-1s0.4472656-1,1-1h31.1582031c0.5527344,0,1,0.4472656,1,1     S35.0909309,24.2963867,34.5381966,24.2963867z"/></g><g><path d="M18.959095,39.8754883c-0.5527344,0-1-0.4472656-1-1V7.7172852c0-0.5527344,0.4472656-1,1-1s1,0.4472656,1,1v31.1582031     C19.959095,39.4282227,19.5118294,39.8754883,18.959095,39.8754883z"/></g></g></g></svg>