<svg xmlns="http://www.w3.org/2000/svg" version="1.1" viewBox="-5.0 -10.0 110.0 135.0">
 <path d="m34.156 65.422c-0.96875 0.14062-1.9531 0.20312-2.9062 0.20312-12.062 0-21.875-9.8125-21.875-21.875 0-7.6406 4.0781-14.828 10.641-18.766 0.73438-0.4375 0.98438-1.4062 0.53125-2.1406-0.4375-0.73438-1.4062-0.98438-2.1406-0.53125-7.5 4.5-12.172 12.719-12.172 21.453 0 13.781 11.219 25 25 25 1.0938 0 2.2188-0.078125 3.3438-0.23438 0.85938-0.125 1.4531-0.90625 1.3281-1.7656s-0.90625-1.4531-1.7656-1.3281z"/>
 <path d="m25.391 22.672c1.8906-0.53125 3.8594-0.79688 5.8594-0.79688 12.062 0 21.875 9.8125 21.875 21.875 0 1.5-0.14062 2.9688-0.4375 4.375-0.17188 0.84375 0.375 1.6719 1.2188 1.8438 0.10938 0.015625 0.21875 0.03125 0.3125 0.03125 0.71875 0 1.375-0.51562 1.5312-1.25 0.32812-1.6094 0.5-3.2969 0.5-5 0-13.781-11.219-25-25-25-2.2812 0-4.5469 0.3125-6.7031 0.92188-0.82812 0.23438-1.3125 1.0938-1.0781 1.9219s1.1094 1.3125 1.9219 1.0781z"/>
 <path d="m70.312 3.125c-10.266 0-19.484 6.8594-22.438 16.672-0.25 0.82812 0.21875 1.7031 1.0469 1.9531 0.84375 0.25 1.7031-0.21875 1.9531-1.0469 2.5625-8.5 10.547-14.453 19.438-14.453 11.203 0 20.312 9.1094 20.312 20.312s-9.1094 20.312-20.312 20.312c-3.0625 0-6.0312-0.67188-8.8125-2-0.78125-0.375-1.7188-0.046875-2.0781 0.73438-0.375 0.78125-0.046875 1.7188 0.73438 2.0781 3.2031 1.5312 6.625 2.3125 10.156 2.3125 12.922 0 23.438-10.516 23.438-23.438s-10.516-23.438-23.438-23.438z"/>
 <path d="m44.25 33.938c-1.7031-1.7344-3.9688-2.6875-6.375-2.6875s-4.6719 0.95312-6.375 2.6875l-0.23438 0.25-0.23438-0.25c-1.7031-1.7344-3.9688-2.6875-6.375-2.6875s-4.6719 0.95312-6.375 2.6875c-3.5 3.5625-3.5 9.3438 0 12.891l11.875 12.078c0.29688 0.29688 0.6875 0.46875 1.1094 0.46875s0.82812-0.17188 1.1094-0.46875l11.875-12.078c3.5-3.5625 3.5-9.3438 0-12.891zm-2.2344 10.703-10.766 10.953-10.766-10.953c-2.3125-2.3438-2.3125-6.1719 0-8.5156 1.1094-1.125 2.5781-1.75 4.1562-1.75s3.0469 0.625 4.1562 1.75l1.3594 1.375c0.59375 0.59375 1.6406 0.59375 2.2344 0l1.3594-1.375c2.2188-2.25 6.0781-2.25 8.2969 0 2.3125 2.3438 2.3125 6.1719 0 8.5156z"/>
 <path d="m59.375 35.938h20.312c2.5781 0 4.6875-2.1094 4.6875-4.6875v-6.25c0-2.5781-2.1094-4.6875-4.6875-4.6875h-5.9688l0.48438-2.9375c0.26562-1.6094-0.1875-3.25-1.2344-4.4844-1.0469-1.25-2.5938-1.9531-4.2188-1.9531-0.59375 0-1.125 0.32812-1.3906 0.85938l-4.25 8.5156h-3.7188c-1.7188 0-3.125 1.4062-3.125 3.125v9.375c0 1.7188 1.4062 3.125 3.125 3.125zm6.25-13.688 4-8.0156c0.35938 0.14062 0.6875 0.375 0.95312 0.6875 0.45312 0.54688 0.65625 1.25 0.53125 1.9531l-0.79688 4.75c-0.078125 0.45312 0.046875 0.92188 0.34375 1.2656s0.73438 0.54688 1.1875 0.54688h7.8125c0.85938 0 1.5625 0.70312 1.5625 1.5625v6.25c0 0.85938-0.70312 1.5625-1.5625 1.5625h-14.062v-10.562zm-6.25 1.1875h3.125v9.375h-3.125z"/>
 <path d="m79.688 53.125h-34.375c-3.4531 0-6.25 2.7969-6.25 6.25v21.875c0 3.4531 2.7969 6.25 6.25 6.25h7.8125c0.85938 0 1.5625-0.70312 1.5625-1.5625s-0.70312-1.5625-1.5625-1.5625h-7.8125c-1.7188 0-3.125-1.4062-3.125-3.125v-21.875c0-1.7188 1.4062-3.125 3.125-3.125h34.375c1.7188 0 3.125 1.4062 3.125 3.125v21.875c0 1.7188-1.4062 3.125-3.125 3.125h-4.6875c-0.85938 0-1.5625 0.70312-1.5625 1.5625v5.6094l-6.7031-6.7031c-0.29688-0.29688-0.6875-0.45312-1.1094-0.45312h-6.25c-0.85938 0-1.5625 0.70312-1.5625 1.5625s0.70312 1.5625 1.5625 1.5625h5.6094l8.9219 8.9219c0.29688 0.29688 0.70312 0.45312 1.1094 0.45312 0.20312 0 0.40625-0.03125 0.59375-0.125 0.57812-0.23438 0.96875-0.8125 0.96875-1.4375v-7.8125h3.125c3.4531 0 6.25-2.7969 6.25-6.25v-21.875c0-3.4531-2.7969-6.25-6.25-6.25z"/>
 <path d="m50 65.625h14.062c0.85938 0 1.5625-0.70312 1.5625-1.5625s-0.70312-1.5625-1.5625-1.5625h-14.062c-0.85938 0-1.5625 0.70312-1.5625 1.5625s0.70312 1.5625 1.5625 1.5625z"/>
 <path d="m50 71.875h25c0.85938 0 1.5625-0.70312 1.5625-1.5625s-0.70312-1.5625-1.5625-1.5625h-25c-0.85938 0-1.5625 0.70312-1.5625 1.5625s0.70312 1.5625 1.5625 1.5625z"/>
 <path d="m50 78.125h25c0.85938 0 1.5625-0.70312 1.5625-1.5625s-0.70312-1.5625-1.5625-1.5625h-25c-0.85938 0-1.5625 0.70312-1.5625 1.5625s0.70312 1.5625 1.5625 1.5625z"/>
</svg>