<?xml version="1.0" encoding="utf-8"?>
<!-- Generator: Adobe Illustrator 25.4.1, SVG Export Plug-In . SVG Version: 6.00 Build 0)  -->
<svg version="1.1" id="Layer_1" xmlns="http://www.w3.org/2000/svg" xmlns:xlink="http://www.w3.org/1999/xlink" x="0px" y="0px"
	 viewBox="0 0 841.89 595.28" style="enable-background:new 0 0 841.89 595.28;" xml:space="preserve">
<style type="text/css">
	.st0{fill:#697480;}
	.st1{fill:#2670CA;}
	.st2{fill:#A6C8E9;}
	.st3{fill:#262626;}
	.st4{fill:#999999;}
	.st5{fill:#FFFFFF;}
</style>
<rect x="85.04" y="122.47" class="st0" width="340.16" height="99.21"/>
<g>
	<path class="st0" d="M212.18,107.14l-1.81-2.74c-0.26,0.02-0.45,0.02-0.59,0.02h-2.3v2.71h-0.83v-8.39h3.13
		c1.05,0,1.86,0.24,2.43,0.73c0.57,0.48,0.86,1.17,0.86,2.06c0,0.7-0.17,1.28-0.5,1.74s-0.82,0.79-1.44,0.97l2.02,2.89H212.18z
		 M209.78,103.69c0.8,0,1.42-0.18,1.85-0.55c0.43-0.36,0.65-0.89,0.65-1.58c0-0.67-0.22-1.18-0.65-1.54
		c-0.43-0.35-1.05-0.53-1.85-0.53h-2.3v4.19H209.78z"/>
	<path class="st0" d="M221.71,107.14l-1-2.23h-4.66l-0.98,2.23h-0.89l3.78-8.39h0.86l3.78,8.39H221.71z M216.38,104.17h4.01
		l-2.02-4.54L216.38,104.17z"/>
	<path class="st0" d="M225.4,96.39l0.83,0.36l-1.51,1.2L224,97.87L225.4,96.39z M224.11,98.75h0.83v8.39h-0.83V98.75z"/>
	<path class="st0" d="M227.07,98.75h6.61v0.64L228,106.4h5.74v0.74h-6.82v-0.65l5.7-7h-5.54V98.75z"/>
	<path class="st0" d="M244.06,99.69c-0.44-0.18-0.9-0.28-1.37-0.28c-0.65,0-1.24,0.16-1.78,0.47c-0.54,0.31-0.97,0.74-1.28,1.28
		c-0.32,0.54-0.47,1.13-0.47,1.77s0.16,1.23,0.47,1.76c0.32,0.54,0.74,0.96,1.28,1.28s1.13,0.47,1.78,0.47
		c0.46,0,0.92-0.09,1.36-0.27c0.44-0.18,0.83-0.43,1.18-0.75l0.5,0.54c-0.42,0.38-0.89,0.69-1.43,0.91
		c-0.54,0.22-1.08,0.34-1.64,0.34c-0.79,0-1.52-0.19-2.18-0.58c-0.66-0.38-1.19-0.9-1.58-1.56c-0.39-0.66-0.58-1.37-0.58-2.15
		s0.2-1.49,0.59-2.14s0.92-1.16,1.59-1.54c0.67-0.38,1.4-0.57,2.19-0.57c0.57,0,1.12,0.11,1.64,0.32c0.53,0.21,0.99,0.51,1.39,0.88
		l-0.49,0.58C244.89,100.13,244.5,99.87,244.06,99.69z"/>
	<path class="st0" d="M253.19,107.14l-1.81-2.74c-0.26,0.02-0.45,0.02-0.59,0.02h-2.3v2.71h-0.83v-8.39h3.13
		c1.05,0,1.86,0.24,2.43,0.73c0.57,0.48,0.86,1.17,0.86,2.06c0,0.7-0.17,1.28-0.5,1.74s-0.82,0.79-1.44,0.97l2.02,2.89H253.19z
		 M250.79,103.69c0.8,0,1.42-0.18,1.85-0.55c0.43-0.36,0.65-0.89,0.65-1.58c0-0.67-0.22-1.18-0.65-1.54
		c-0.43-0.35-1.05-0.53-1.85-0.53h-2.3v4.19H250.79z"/>
	<path class="st0" d="M256.46,98.75h5.62v0.74h-4.79v3h4.28v0.74h-4.28v3.16h4.94v0.74h-5.77V98.75z"/>
	<path class="st0" d="M270.64,107.14l-1-2.23h-4.66l-0.98,2.23h-0.89l3.78-8.39h0.86l3.78,8.39H270.64z M265.31,104.17h4.01
		l-2.02-4.54L265.31,104.17z"/>
	<path class="st0" d="M271.07,98.74h6.37v0.76h-2.77v7.64h-0.83V99.5h-2.77V98.74z"/>
	<path class="st0" d="M279.02,98.75h0.83v8.39h-0.83V98.75z"/>
	<path class="st0" d="M281.37,98.75h0.89l2.99,7.48l2.98-7.48h0.88l-3.44,8.39h-0.86L281.37,98.75z"/>
	<path class="st0" d="M296.35,107.14l-1-2.23h-4.66l-0.98,2.23h-0.89l3.78-8.39h0.86l3.78,8.39H296.35z M291.02,104.17h4.01
		l-2.02-4.54L291.02,104.17z"/>
</g>
<g>
	<path class="st1" d="M136.28,58.31c2.68,1.46,4.79,3.46,6.33,6c1.54,2.54,2.3,5.4,2.3,8.56c0,3.2-0.77,6.08-2.3,8.65
		c-1.54,2.58-3.65,4.61-6.33,6.1c-2.68,1.49-5.69,2.23-9,2.23c-3.32,0-6.32-0.74-9-2.21c-2.68-1.47-4.79-3.51-6.33-6.1
		c-1.54-2.59-2.3-5.48-2.3-8.68c0-3.16,0.77-6.02,2.3-8.56c1.54-2.54,3.64-4.54,6.33-6c2.68-1.46,5.68-2.19,9-2.19
		C130.6,56.12,133.6,56.85,136.28,58.31z M122.88,64.59c-1.38,0.84-2.47,1.99-3.28,3.47c-0.81,1.47-1.21,3.09-1.21,4.86
		c0,1.8,0.41,3.44,1.23,4.91c0.82,1.47,1.92,2.64,3.28,3.49c1.36,0.85,2.85,1.28,4.47,1.28c1.61,0,3.09-0.43,4.44-1.28
		c1.35-0.85,2.41-2.02,3.19-3.49c0.77-1.47,1.16-3.11,1.16-4.91c0-1.77-0.39-3.39-1.16-4.86c-0.78-1.47-1.84-2.63-3.19-3.47
		c-1.35-0.84-2.83-1.26-4.44-1.26C125.76,63.34,124.26,63.76,122.88,64.59z"/>
	<path class="st1" d="M168.08,89.26l-4.75-9.03h-0.19H157v9.03h-8.52V56.64h14.66c4.31,0,7.65,1,10.03,3c2.37,2,3.56,4.82,3.56,8.45
		c0,2.45-0.5,4.57-1.49,6.35c-0.99,1.78-2.44,3.17-4.33,4.16l6.79,10.66H168.08z M157,73.43h6.19c1.74,0,3.08-0.43,4.03-1.3
		c0.95-0.87,1.42-2.12,1.42-3.77c0-1.58-0.47-2.8-1.42-3.65c-0.95-0.85-2.29-1.28-4.03-1.28H157V73.43z"/>
	<path class="st1" d="M181.17,70.66l8.52-5.17v23.76h-8.52V70.66z"/>
	<path class="st2" d="M181.17,56.64h8.52v5.5l-8.52,5.17V56.64z"/>
	<path class="st1" d="M229.12,70.66l8.52-5.17v23.76h-8.52V70.66z"/>
	<polygon class="st2" points="229.12,56.64 237.64,56.64 237.64,62.14 229.12,67.3 	"/>
	<path class="st1" d="M346.27,70.66l8.52-5.17v23.76h-8.52V70.66z"/>
	<path class="st2" d="M346.27,56.64h8.52v5.5l-8.52,5.17V56.64z"/>
	<path class="st1" d="M216.94,72.6h7.35v12.98c-1.74,1.27-3.87,2.3-6.4,3.09c-2.53,0.79-4.93,1.19-7.19,1.19
		c-3.29,0-6.26-0.74-8.91-2.21c-2.65-1.47-4.74-3.5-6.26-6.07c-1.52-2.57-2.28-5.46-2.28-8.65c0-3.16,0.78-6.03,2.35-8.59
		c1.57-2.56,3.72-4.57,6.47-6.03c2.75-1.46,5.81-2.19,9.19-2.19c2.42,0,4.84,0.44,7.26,1.33c2.42,0.88,4.47,2.07,6.14,3.56
		l-4.84,5.96c-1.18-1.12-2.54-2-4.07-2.65c-1.54-0.65-3.05-0.98-4.54-0.98c-1.74,0-3.3,0.42-4.7,1.26c-1.4,0.84-2.5,1.99-3.3,3.44
		c-0.81,1.46-1.21,3.09-1.21,4.89c0,1.83,0.4,3.48,1.21,4.96c0.81,1.47,1.92,2.63,3.35,3.47c1.43,0.84,3.01,1.26,4.75,1.26
		c1.64,0,3.52-0.53,5.63-1.58V72.6z"/>
	<path class="st1" d="M302.63,89.26l-2.23-5.77h-14.1l-2.28,5.77h-8.75l14.01-32.62h8.75l13.68,32.62H302.63z M288.86,76.97h9.03
		l-4.47-11.63L288.86,76.97z"/>
	<path class="st1" d="M333.18,89.26l-4.75-9.03h-0.19h-6.14v9.03h-8.52V56.64h14.66c4.31,0,7.65,1,10.03,3
		c2.37,2,3.56,4.82,3.56,8.45c0,2.45-0.5,4.57-1.49,6.35c-0.99,1.78-2.44,3.17-4.33,4.16l6.79,10.66H333.18z M322.1,73.43h6.19
		c1.74,0,3.08-0.43,4.03-1.3c0.95-0.87,1.42-2.12,1.42-3.77c0-1.58-0.47-2.8-1.42-3.65c-0.95-0.85-2.29-1.28-4.03-1.28h-6.19V73.43z
		"/>
	<path class="st1" d="M384.03,89.26l-2.23-5.77h-14.1l-2.28,5.77h-8.75l14.01-32.62h8.75l13.68,32.62H384.03z M370.26,76.97h9.03
		l-4.47-11.63L370.26,76.97z"/>
	<polyline class="st1" points="273.38,56.64 265.47,56.64 265.51,74.15 273.38,85.45 	"/>
	<polygon class="st1" points="273.38,89.25 250.68,56.64 243.18,56.64 243.18,89.26 251.14,89.26 251.14,67.98 265.94,89.26 
		273.38,89.26 	"/>
</g>
<g>
	<path class="st3" d="M212.18,412.09l-1.81-2.74c-0.26,0.02-0.45,0.02-0.59,0.02h-2.3v2.71h-0.83v-8.39h3.13
		c1.05,0,1.86,0.24,2.43,0.73c0.57,0.48,0.86,1.17,0.86,2.06c0,0.7-0.17,1.28-0.5,1.74s-0.82,0.79-1.44,0.97l2.02,2.89H212.18z
		 M209.78,408.63c0.8,0,1.42-0.18,1.85-0.55c0.43-0.36,0.65-0.89,0.65-1.58c0-0.67-0.22-1.18-0.65-1.54
		c-0.43-0.35-1.05-0.53-1.85-0.53h-2.3v4.19H209.78z"/>
	<path class="st3" d="M221.71,412.09l-1-2.23h-4.66l-0.98,2.23h-0.89l3.78-8.39h0.86l3.78,8.39H221.71z M216.38,409.12h4.01
		l-2.02-4.54L216.38,409.12z"/>
	<path class="st3" d="M225.4,401.34l0.83,0.36l-1.51,1.2l-0.72-0.08L225.4,401.34z M224.11,403.7h0.83v8.39h-0.83V403.7z"/>
	<path class="st3" d="M227.07,403.7h6.61v0.64l-5.69,7.01h5.74v0.74h-6.82v-0.65l5.7-7h-5.54V403.7z"/>
	<path class="st3" d="M244.06,404.64c-0.44-0.18-0.9-0.28-1.37-0.28c-0.65,0-1.24,0.16-1.78,0.47s-0.97,0.74-1.28,1.28
		c-0.32,0.54-0.47,1.13-0.47,1.77c0,0.64,0.16,1.23,0.47,1.76c0.32,0.54,0.74,0.96,1.28,1.28c0.54,0.32,1.13,0.47,1.78,0.47
		c0.46,0,0.92-0.09,1.36-0.27c0.44-0.18,0.83-0.43,1.18-0.75l0.5,0.54c-0.42,0.38-0.89,0.69-1.43,0.91s-1.08,0.34-1.64,0.34
		c-0.79,0-1.52-0.19-2.18-0.58s-1.19-0.9-1.58-1.56s-0.58-1.37-0.58-2.15c0-0.78,0.2-1.49,0.59-2.14c0.39-0.65,0.92-1.16,1.59-1.54
		s1.4-0.57,2.19-0.57c0.57,0,1.12,0.11,1.64,0.32c0.53,0.21,0.99,0.51,1.39,0.88l-0.49,0.58
		C244.89,405.08,244.5,404.82,244.06,404.64z"/>
	<path class="st3" d="M253.19,412.09l-1.81-2.74c-0.26,0.02-0.45,0.02-0.59,0.02h-2.3v2.71h-0.83v-8.39h3.13
		c1.05,0,1.86,0.24,2.43,0.73c0.57,0.48,0.86,1.17,0.86,2.06c0,0.7-0.17,1.28-0.5,1.74s-0.82,0.79-1.44,0.97l2.02,2.89H253.19z
		 M250.79,408.63c0.8,0,1.42-0.18,1.85-0.55c0.43-0.36,0.65-0.89,0.65-1.58c0-0.67-0.22-1.18-0.65-1.54
		c-0.43-0.35-1.05-0.53-1.85-0.53h-2.3v4.19H250.79z"/>
	<path class="st3" d="M256.46,403.7h5.62v0.74h-4.79v3h4.28v0.74h-4.28v3.16h4.94v0.74h-5.77V403.7z"/>
	<path class="st3" d="M270.64,412.09l-1-2.23h-4.66l-0.98,2.23h-0.89l3.78-8.39h0.86l3.78,8.39H270.64z M265.31,409.12h4.01
		l-2.02-4.54L265.31,409.12z"/>
	<path class="st3" d="M271.07,403.69h6.37v0.76h-2.77v7.64h-0.83v-7.64h-2.77V403.69z"/>
	<path class="st3" d="M279.02,403.7h0.83v8.39h-0.83V403.7z"/>
	<path class="st3" d="M281.37,403.7h0.89l2.99,7.48l2.98-7.48h0.88l-3.44,8.39h-0.86L281.37,403.7z"/>
	<path class="st3" d="M296.35,412.09l-1-2.23h-4.66l-0.98,2.23h-0.89l3.78-8.39h0.86l3.78,8.39H296.35z M291.02,409.12h4.01
		l-2.02-4.54L291.02,409.12z"/>
</g>
<g>
	<path class="st3" d="M136.28,363.26c2.68,1.46,4.79,3.46,6.33,6c1.54,2.54,2.3,5.4,2.3,8.56c0,3.2-0.77,6.08-2.3,8.65
		c-1.54,2.58-3.65,4.61-6.33,6.1c-2.68,1.49-5.69,2.23-9,2.23c-3.32,0-6.32-0.74-9-2.21c-2.68-1.47-4.79-3.51-6.33-6.1
		c-1.54-2.59-2.3-5.48-2.3-8.68c0-3.16,0.77-6.02,2.3-8.56c1.54-2.54,3.64-4.54,6.33-6c2.68-1.46,5.68-2.19,9-2.19
		C130.6,361.07,133.6,361.8,136.28,363.26z M122.88,369.54c-1.38,0.84-2.47,1.99-3.28,3.47c-0.81,1.47-1.21,3.09-1.21,4.86
		c0,1.8,0.41,3.44,1.23,4.91c0.82,1.47,1.92,2.64,3.28,3.49c1.36,0.85,2.85,1.28,4.47,1.28c1.61,0,3.09-0.43,4.44-1.28
		c1.35-0.85,2.41-2.02,3.19-3.49c0.77-1.47,1.16-3.11,1.16-4.91c0-1.77-0.39-3.39-1.16-4.86c-0.78-1.47-1.84-2.63-3.19-3.47
		c-1.35-0.84-2.83-1.26-4.44-1.26C125.76,368.29,124.26,368.71,122.88,369.54z"/>
	<path class="st3" d="M168.08,394.21l-4.75-9.03h-0.19H157v9.03h-8.52v-32.62h14.66c4.31,0,7.65,1,10.03,3
		c2.37,2,3.56,4.82,3.56,8.45c0,2.45-0.5,4.57-1.49,6.35c-0.99,1.78-2.44,3.17-4.33,4.16l6.79,10.66H168.08z M157,378.38h6.19
		c1.74,0,3.08-0.43,4.03-1.3c0.95-0.87,1.42-2.12,1.42-3.77c0-1.58-0.47-2.8-1.42-3.65c-0.95-0.85-2.29-1.28-4.03-1.28H157V378.38z"
		/>
	<path class="st3" d="M181.17,375.61l8.52-5.17v23.76h-8.52V375.61z"/>
	<path class="st4" d="M181.17,361.59h8.52v5.5l-8.52,5.17V361.59z"/>
	<path class="st3" d="M229.12,375.61l8.52-5.17v23.76h-8.52V375.61z"/>
	<polygon class="st4" points="229.12,361.59 237.64,361.59 237.64,367.09 229.12,372.25 	"/>
	<path class="st3" d="M346.27,375.61l8.52-5.17v23.76h-8.52V375.61z"/>
	<path class="st4" d="M346.27,361.59h8.52v5.5l-8.52,5.17V361.59z"/>
	<path class="st3" d="M216.94,377.55h7.35v12.98c-1.74,1.27-3.87,2.3-6.4,3.09c-2.53,0.79-4.93,1.19-7.19,1.19
		c-3.29,0-6.26-0.74-8.91-2.21c-2.65-1.47-4.74-3.5-6.26-6.07c-1.52-2.57-2.28-5.46-2.28-8.65c0-3.16,0.78-6.03,2.35-8.59
		c1.57-2.56,3.72-4.57,6.47-6.03c2.75-1.46,5.81-2.19,9.19-2.19c2.42,0,4.84,0.44,7.26,1.33c2.42,0.88,4.47,2.07,6.14,3.56
		l-4.84,5.96c-1.18-1.12-2.54-2-4.07-2.65c-1.54-0.65-3.05-0.98-4.54-0.98c-1.74,0-3.3,0.42-4.7,1.26c-1.4,0.84-2.5,1.99-3.3,3.44
		c-0.81,1.46-1.21,3.09-1.21,4.89c0,1.83,0.4,3.48,1.21,4.96c0.81,1.47,1.92,2.63,3.35,3.47c1.43,0.84,3.01,1.26,4.75,1.26
		c1.64,0,3.52-0.53,5.63-1.58V377.55z"/>
	<path class="st3" d="M302.63,394.21l-2.23-5.77h-14.1l-2.28,5.77h-8.75l14.01-32.62h8.75l13.68,32.62H302.63z M288.86,381.92h9.03
		l-4.47-11.63L288.86,381.92z"/>
	<path class="st3" d="M333.18,394.21l-4.75-9.03h-0.19h-6.14v9.03h-8.52v-32.62h14.66c4.31,0,7.65,1,10.03,3
		c2.37,2,3.56,4.82,3.56,8.45c0,2.45-0.5,4.57-1.49,6.35c-0.99,1.78-2.44,3.17-4.33,4.16l6.79,10.66H333.18z M322.1,378.38h6.19
		c1.74,0,3.08-0.43,4.03-1.3c0.95-0.87,1.42-2.12,1.42-3.77c0-1.58-0.47-2.8-1.42-3.65c-0.95-0.85-2.29-1.28-4.03-1.28h-6.19V378.38
		z"/>
	<path class="st3" d="M384.03,394.21l-2.23-5.77h-14.1l-2.28,5.77h-8.75l14.01-32.62h8.75l13.68,32.62H384.03z M370.26,381.92h9.03
		l-4.47-11.63L370.26,381.92z"/>
	<polyline class="st3" points="273.38,361.59 265.47,361.59 265.51,379.1 273.38,390.4 	"/>
	<polygon class="st3" points="273.38,394.2 250.68,361.59 243.18,361.59 243.18,394.21 251.14,394.21 251.14,372.93 265.94,394.21 
		273.38,394.21 	"/>
</g>
<g>
	<path class="st5" d="M212.18,199.45l-1.81-2.74c-0.26,0.02-0.45,0.02-0.59,0.02h-2.3v2.71h-0.83v-8.39h3.13
		c1.05,0,1.86,0.24,2.43,0.73c0.57,0.48,0.86,1.17,0.86,2.06c0,0.7-0.17,1.28-0.5,1.74s-0.82,0.79-1.44,0.97l2.02,2.89H212.18z
		 M209.78,196c0.8,0,1.42-0.18,1.85-0.55c0.43-0.36,0.65-0.89,0.65-1.58c0-0.67-0.22-1.18-0.65-1.54c-0.43-0.35-1.05-0.53-1.85-0.53
		h-2.3V196H209.78z"/>
	<path class="st5" d="M221.71,199.45l-1-2.23h-4.66l-0.98,2.23h-0.89l3.78-8.39h0.86l3.78,8.39H221.71z M216.38,196.48h4.01
		l-2.02-4.54L216.38,196.48z"/>
	<path class="st5" d="M225.4,188.7l0.83,0.36l-1.51,1.2l-0.72-0.08L225.4,188.7z M224.11,191.06h0.83v8.39h-0.83V191.06z"/>
	<path class="st5" d="M227.07,191.06h6.61v0.64l-5.69,7.01h5.74v0.74h-6.82v-0.65l5.7-7h-5.54V191.06z"/>
	<path class="st5" d="M244.06,192c-0.44-0.18-0.9-0.28-1.37-0.28c-0.65,0-1.24,0.16-1.78,0.47c-0.54,0.31-0.97,0.74-1.28,1.28
		c-0.32,0.54-0.47,1.13-0.47,1.77s0.16,1.23,0.47,1.76c0.32,0.54,0.74,0.96,1.28,1.28s1.13,0.47,1.78,0.47
		c0.46,0,0.92-0.09,1.36-0.27c0.44-0.18,0.83-0.43,1.18-0.75l0.5,0.54c-0.42,0.38-0.89,0.69-1.43,0.91
		c-0.54,0.22-1.08,0.34-1.64,0.34c-0.79,0-1.52-0.19-2.18-0.58c-0.66-0.38-1.19-0.9-1.58-1.56c-0.39-0.66-0.58-1.37-0.58-2.15
		s0.2-1.49,0.59-2.14s0.92-1.16,1.59-1.54c0.67-0.38,1.4-0.57,2.19-0.57c0.57,0,1.12,0.11,1.64,0.32c0.53,0.21,0.99,0.51,1.39,0.88
		l-0.49,0.58C244.89,192.44,244.5,192.18,244.06,192z"/>
	<path class="st5" d="M253.19,199.45l-1.81-2.74c-0.26,0.02-0.45,0.02-0.59,0.02h-2.3v2.71h-0.83v-8.39h3.13
		c1.05,0,1.86,0.24,2.43,0.73c0.57,0.48,0.86,1.17,0.86,2.06c0,0.7-0.17,1.28-0.5,1.74s-0.82,0.79-1.44,0.97l2.02,2.89H253.19z
		 M250.79,196c0.8,0,1.42-0.18,1.85-0.55c0.43-0.36,0.65-0.89,0.65-1.58c0-0.67-0.22-1.18-0.65-1.54c-0.43-0.35-1.05-0.53-1.85-0.53
		h-2.3V196H250.79z"/>
	<path class="st5" d="M256.46,191.06h5.62v0.74h-4.79v3h4.28v0.74h-4.28v3.16h4.94v0.74h-5.77V191.06z"/>
	<path class="st5" d="M270.64,199.45l-1-2.23h-4.66l-0.98,2.23h-0.89l3.78-8.39h0.86l3.78,8.39H270.64z M265.31,196.48h4.01
		l-2.02-4.54L265.31,196.48z"/>
	<path class="st5" d="M271.07,191.05h6.37v0.76h-2.77v7.64h-0.83v-7.64h-2.77V191.05z"/>
	<path class="st5" d="M279.02,191.06h0.83v8.39h-0.83V191.06z"/>
	<path class="st5" d="M281.37,191.06h0.89l2.99,7.48l2.98-7.48h0.88l-3.44,8.39h-0.86L281.37,191.06z"/>
	<path class="st5" d="M296.35,199.45l-1-2.23h-4.66l-0.98,2.23h-0.89l3.78-8.39h0.86l3.78,8.39H296.35z M291.02,196.48h4.01
		l-2.02-4.54L291.02,196.48z"/>
</g>
<g>
	<path class="st5" d="M136.28,150.62c2.68,1.46,4.79,3.46,6.33,6c1.54,2.54,2.3,5.4,2.3,8.56c0,3.2-0.77,6.08-2.3,8.65
		c-1.54,2.58-3.65,4.61-6.33,6.1c-2.68,1.49-5.69,2.23-9,2.23c-3.32,0-6.32-0.74-9-2.21c-2.68-1.47-4.79-3.51-6.33-6.1
		c-1.54-2.59-2.3-5.48-2.3-8.68c0-3.16,0.77-6.02,2.3-8.56c1.54-2.54,3.64-4.54,6.33-6c2.68-1.46,5.68-2.19,9-2.19
		C130.6,148.43,133.6,149.16,136.28,150.62z M122.88,156.9c-1.38,0.84-2.47,1.99-3.28,3.47c-0.81,1.47-1.21,3.09-1.21,4.86
		c0,1.8,0.41,3.44,1.23,4.91c0.82,1.47,1.92,2.64,3.28,3.49c1.36,0.85,2.85,1.28,4.47,1.28c1.61,0,3.09-0.43,4.44-1.28
		c1.35-0.85,2.41-2.02,3.19-3.49c0.77-1.47,1.16-3.11,1.16-4.91c0-1.77-0.39-3.39-1.16-4.86c-0.78-1.47-1.84-2.63-3.19-3.47
		c-1.35-0.84-2.83-1.26-4.44-1.26C125.76,155.65,124.26,156.07,122.88,156.9z"/>
	<path class="st5" d="M168.08,181.57l-4.75-9.03h-0.19H157v9.03h-8.52v-32.62h14.66c4.31,0,7.65,1,10.03,3
		c2.37,2,3.56,4.82,3.56,8.45c0,2.45-0.5,4.57-1.49,6.35c-0.99,1.78-2.44,3.17-4.33,4.16l6.79,10.66H168.08z M157,165.74h6.19
		c1.74,0,3.08-0.43,4.03-1.3c0.95-0.87,1.42-2.12,1.42-3.77c0-1.58-0.47-2.8-1.42-3.65c-0.95-0.85-2.29-1.28-4.03-1.28H157V165.74z"
		/>
	<path class="st5" d="M181.17,162.97l8.52-5.17v23.76h-8.52V162.97z"/>
	<path class="st2" d="M181.17,148.95h8.52v5.5l-8.52,5.17V148.95z"/>
	<path class="st5" d="M229.12,162.97l8.52-5.17v23.76h-8.52V162.97z"/>
	<polygon class="st2" points="229.12,148.95 237.64,148.95 237.64,154.45 229.12,159.61 	"/>
	<path class="st5" d="M346.27,162.97l8.52-5.17v23.76h-8.52V162.97z"/>
	<path class="st2" d="M346.27,148.95h8.52v5.5l-8.52,5.17V148.95z"/>
	<path class="st5" d="M216.94,164.91h7.35v12.98c-1.74,1.27-3.87,2.3-6.4,3.09c-2.53,0.79-4.93,1.19-7.19,1.19
		c-3.29,0-6.26-0.74-8.91-2.21c-2.65-1.47-4.74-3.5-6.26-6.07c-1.52-2.57-2.28-5.46-2.28-8.65c0-3.16,0.78-6.03,2.35-8.59
		c1.57-2.56,3.72-4.57,6.47-6.03c2.75-1.46,5.81-2.19,9.19-2.19c2.42,0,4.84,0.44,7.26,1.33c2.42,0.88,4.47,2.07,6.14,3.56
		l-4.84,5.96c-1.18-1.12-2.54-2-4.07-2.65c-1.54-0.65-3.05-0.98-4.54-0.98c-1.74,0-3.3,0.42-4.7,1.26c-1.4,0.84-2.5,1.99-3.3,3.44
		c-0.81,1.46-1.21,3.09-1.21,4.89c0,1.83,0.4,3.48,1.21,4.96c0.81,1.47,1.92,2.63,3.35,3.47c1.43,0.84,3.01,1.26,4.75,1.26
		c1.64,0,3.52-0.53,5.63-1.58V164.91z"/>
	<path class="st5" d="M302.63,181.57l-2.23-5.77h-14.1l-2.28,5.77h-8.75l14.01-32.62h8.75l13.68,32.62H302.63z M288.86,169.28h9.03
		l-4.47-11.63L288.86,169.28z"/>
	<path class="st5" d="M333.18,181.57l-4.75-9.03h-0.19h-6.14v9.03h-8.52v-32.62h14.66c4.31,0,7.65,1,10.03,3
		c2.37,2,3.56,4.82,3.56,8.45c0,2.45-0.5,4.57-1.49,6.35c-0.99,1.78-2.44,3.17-4.33,4.16l6.79,10.66H333.18z M322.1,165.74h6.19
		c1.74,0,3.08-0.43,4.03-1.3c0.95-0.87,1.42-2.12,1.42-3.77c0-1.58-0.47-2.8-1.42-3.65c-0.95-0.85-2.29-1.28-4.03-1.28h-6.19V165.74
		z"/>
	<path class="st5" d="M384.03,181.57l-2.23-5.77h-14.1l-2.28,5.77h-8.75l14.01-32.62h8.75l13.68,32.62H384.03z M370.26,169.28h9.03
		l-4.47-11.63L370.26,169.28z"/>
	<polyline class="st5" points="273.38,148.95 265.47,148.95 265.51,166.46 273.38,177.76 	"/>
	<polygon class="st5" points="273.38,181.56 250.68,148.95 243.18,148.95 243.18,181.57 251.14,181.57 251.14,160.29 265.94,181.57 
		273.38,181.57 	"/>
</g>
<rect x="627.65" y="210.35" class="st1" width="113.39" height="127.56"/>
<g>
	<g>
		<path class="st5" d="M670.96,227.96c2.68,1.46,4.79,3.46,6.33,6c1.54,2.54,2.3,5.4,2.3,8.56c0,3.2-0.77,6.08-2.3,8.65
			c-1.54,2.58-3.65,4.61-6.33,6.1c-2.68,1.49-5.69,2.23-9,2.23c-3.32,0-6.32-0.74-9-2.21c-2.68-1.47-4.79-3.51-6.33-6.1
			c-1.54-2.59-2.3-5.48-2.3-8.68c0-3.16,0.77-6.02,2.3-8.56c1.54-2.54,3.64-4.54,6.33-6c2.68-1.46,5.68-2.19,9-2.19
			C665.28,225.77,668.28,226.5,670.96,227.96z M657.56,234.24c-1.38,0.84-2.47,1.99-3.28,3.47c-0.81,1.47-1.21,3.09-1.21,4.86
			c0,1.8,0.41,3.44,1.23,4.91c0.82,1.47,1.92,2.64,3.28,3.49c1.36,0.85,2.85,1.28,4.47,1.28c1.61,0,3.09-0.43,4.44-1.28
			c1.35-0.85,2.41-2.02,3.19-3.49c0.77-1.47,1.16-3.11,1.16-4.91c0-1.77-0.39-3.39-1.16-4.86c-0.78-1.47-1.84-2.63-3.19-3.47
			c-1.35-0.84-2.83-1.26-4.44-1.26C660.44,232.99,658.94,233.41,657.56,234.24z"/>
		<path class="st5" d="M702.75,258.91l-4.75-9.03h-0.19h-6.14v9.03h-8.52v-32.62h14.66c4.31,0,7.65,1,10.03,3
			c2.37,2,3.56,4.82,3.56,8.45c0,2.45-0.5,4.57-1.49,6.35c-0.99,1.78-2.44,3.17-4.33,4.16l6.79,10.66H702.75z M691.68,243.09h6.19
			c1.74,0,3.08-0.43,4.03-1.3c0.95-0.87,1.42-2.12,1.42-3.77c0-1.58-0.47-2.8-1.42-3.65c-0.95-0.85-2.29-1.28-4.03-1.28h-6.19
			V243.09z"/>
		<path class="st5" d="M715.85,240.31l8.52-5.17v23.76h-8.52V240.31z"/>
		<path class="st2" d="M715.85,226.29h8.52v5.5l-8.52,5.17V226.29z"/>
	</g>
	<g>
		<g>
			<path class="st2" d="M663.14,322.48l-1.54-3.98h-9.72l-1.57,3.98h-6.03l9.66-22.49h6.03l9.43,22.49H663.14z M653.65,314.01h6.22
				l-3.08-8.02L653.65,314.01z"/>
			<path class="st2" d="M684.21,322.48l-3.27-6.22h-0.13h-4.24v6.22h-5.87v-22.49h10.11c2.97,0,5.28,0.69,6.91,2.07
				c1.64,1.38,2.45,3.32,2.45,5.82c0,1.69-0.34,3.15-1.03,4.38c-0.69,1.23-1.68,2.19-2.98,2.87l4.68,7.35H684.21z M676.57,311.57
				h4.27c1.2,0,2.12-0.3,2.78-0.9c0.65-0.6,0.98-1.46,0.98-2.6c0-1.09-0.33-1.93-0.98-2.52c-0.65-0.59-1.58-0.88-2.78-0.88h-4.27
				V311.57z"/>
		</g>
		<g>
			<path class="st5" d="M692.11,309.66l5.87-3.56v16.38h-5.87V309.66z"/>
			<path class="st2" d="M692.11,299.99h5.87v3.79l-5.87,3.56V299.99z"/>
			<path class="st5" d="M718.15,322.48l-1.54-3.98h-9.72l-1.57,3.98h-6.03l9.66-22.49h6.03l9.43,22.49H718.15z M708.65,314.01h6.22
				l-3.08-8.02L708.65,314.01z"/>
		</g>
	</g>
	<g>
		<path class="st5" d="M680.14,277.16l8.52-5.17v23.76h-8.52V277.16z"/>
		<polygon class="st2" points="680.14,263.14 688.66,263.14 688.66,268.64 680.14,273.81 		"/>
		<path class="st5" d="M667.96,279.1h7.35v12.98c-1.74,1.27-3.87,2.3-6.4,3.09c-2.53,0.79-4.93,1.19-7.19,1.19
			c-3.29,0-6.26-0.74-8.91-2.21c-2.65-1.47-4.74-3.5-6.26-6.07c-1.52-2.57-2.28-5.46-2.28-8.65c0-3.16,0.78-6.03,2.35-8.59
			c1.57-2.56,3.72-4.57,6.47-6.03c2.75-1.46,5.81-2.19,9.19-2.19c2.42,0,4.84,0.44,7.26,1.33c2.42,0.88,4.47,2.07,6.14,3.56
			l-4.84,5.96c-1.18-1.12-2.54-2-4.07-2.65c-1.54-0.65-3.05-0.98-4.54-0.98c-1.74,0-3.3,0.42-4.7,1.26c-1.4,0.84-2.5,1.99-3.3,3.44
			c-0.81,1.46-1.21,3.09-1.21,4.89c0,1.83,0.4,3.48,1.21,4.96c0.81,1.47,1.92,2.63,3.35,3.47c1.43,0.84,3.01,1.26,4.75,1.26
			c1.64,0,3.52-0.53,5.63-1.58V279.1z"/>
		<polygon class="st5" points="724.41,263.14 716.5,263.14 716.54,280.65 724.4,291.95 		"/>
		<polygon class="st5" points="724.4,295.75 701.7,263.14 694.21,263.14 694.21,295.76 702.16,295.76 702.16,274.49 716.96,295.76 
			724.41,295.76 		"/>
	</g>
</g>
<g>
	<g>
		<path class="st1" d="M517.57,227.96c2.68,1.46,4.79,3.46,6.33,6c1.54,2.54,2.3,5.4,2.3,8.56c0,3.2-0.77,6.08-2.3,8.65
			c-1.54,2.58-3.65,4.61-6.33,6.1c-2.68,1.49-5.69,2.23-9,2.23c-3.32,0-6.32-0.74-9-2.21c-2.68-1.47-4.79-3.51-6.33-6.1
			c-1.54-2.59-2.3-5.48-2.3-8.68c0-3.16,0.77-6.02,2.3-8.56c1.54-2.54,3.64-4.54,6.33-6c2.68-1.46,5.68-2.19,9-2.19
			C511.89,225.77,514.89,226.5,517.57,227.96z M504.17,234.24c-1.38,0.84-2.47,1.99-3.28,3.47c-0.81,1.47-1.21,3.09-1.21,4.86
			c0,1.8,0.41,3.44,1.23,4.91c0.82,1.47,1.92,2.64,3.28,3.49c1.36,0.85,2.85,1.28,4.47,1.28c1.61,0,3.09-0.43,4.44-1.28
			c1.35-0.85,2.41-2.02,3.19-3.49c0.77-1.47,1.16-3.11,1.16-4.91c0-1.77-0.39-3.39-1.16-4.86c-0.78-1.47-1.84-2.63-3.19-3.47
			c-1.35-0.84-2.83-1.26-4.44-1.26C507.05,232.99,505.55,233.41,504.17,234.24z"/>
		<path class="st1" d="M549.36,258.91l-4.75-9.03h-0.19h-6.14v9.03h-8.52v-32.62h14.66c4.31,0,7.65,1,10.03,3
			c2.37,2,3.56,4.82,3.56,8.45c0,2.45-0.5,4.57-1.49,6.35c-0.99,1.78-2.44,3.17-4.33,4.16l6.79,10.66H549.36z M538.29,243.09h6.19
			c1.74,0,3.08-0.43,4.03-1.3c0.95-0.87,1.42-2.12,1.42-3.77c0-1.58-0.47-2.8-1.42-3.65c-0.95-0.85-2.29-1.28-4.03-1.28h-6.19
			V243.09z"/>
		<path class="st1" d="M562.46,240.31l8.52-5.17v23.76h-8.52V240.31z"/>
		<path class="st2" d="M562.46,226.29h8.52v5.5l-8.52,5.17V226.29z"/>
	</g>
	<g>
		<g>
			<path class="st2" d="M509.75,322.48l-1.54-3.98h-9.72l-1.57,3.98h-6.03l9.66-22.49h6.03l9.43,22.49H509.75z M500.26,314.01h6.22
				l-3.08-8.02L500.26,314.01z"/>
			<path class="st2" d="M530.82,322.48l-3.27-6.22h-0.13h-4.24v6.22h-5.87v-22.49h10.11c2.97,0,5.28,0.69,6.91,2.07
				c1.64,1.38,2.45,3.32,2.45,5.82c0,1.69-0.34,3.15-1.03,4.38c-0.69,1.23-1.68,2.19-2.98,2.87l4.68,7.35H530.82z M523.18,311.57
				h4.27c1.2,0,2.12-0.3,2.78-0.9c0.65-0.6,0.98-1.46,0.98-2.6c0-1.09-0.33-1.93-0.98-2.52c-0.65-0.59-1.58-0.88-2.78-0.88h-4.27
				V311.57z"/>
		</g>
		<g>
			<path class="st1" d="M538.72,309.66l5.87-3.56v16.38h-5.87V309.66z"/>
			<path class="st2" d="M538.72,299.99h5.87v3.79l-5.87,3.56V299.99z"/>
			<path class="st1" d="M564.76,322.48l-1.54-3.98h-9.72l-1.57,3.98h-6.03l9.66-22.49h6.03l9.43,22.49H564.76z M555.26,314.01h6.22
				l-3.08-8.02L555.26,314.01z"/>
		</g>
	</g>
	<g>
		<path class="st1" d="M526.76,277.16l8.52-5.17v23.76h-8.52V277.16z"/>
		<polygon class="st2" points="526.76,263.14 535.27,263.14 535.27,268.64 526.76,273.81 		"/>
		<path class="st1" d="M514.57,279.1h7.35v12.98c-1.74,1.27-3.87,2.3-6.4,3.09c-2.53,0.79-4.93,1.19-7.19,1.19
			c-3.29,0-6.26-0.74-8.91-2.21c-2.65-1.47-4.74-3.5-6.26-6.07c-1.52-2.57-2.28-5.46-2.28-8.65c0-3.16,0.78-6.03,2.35-8.59
			c1.57-2.56,3.72-4.57,6.47-6.03c2.75-1.46,5.81-2.19,9.19-2.19c2.42,0,4.84,0.44,7.26,1.33c2.42,0.88,4.47,2.07,6.14,3.56
			l-4.84,5.96c-1.18-1.12-2.54-2-4.07-2.65c-1.54-0.65-3.05-0.98-4.54-0.98c-1.74,0-3.3,0.42-4.7,1.26c-1.4,0.84-2.5,1.99-3.3,3.44
			c-0.81,1.46-1.21,3.09-1.21,4.89c0,1.83,0.4,3.48,1.21,4.96c0.81,1.47,1.92,2.63,3.35,3.47c1.43,0.84,3.01,1.26,4.75,1.26
			c1.64,0,3.52-0.53,5.63-1.58V279.1z"/>
		<polygon class="st1" points="571.02,263.14 563.11,263.14 563.15,280.65 571.01,291.95 		"/>
		<polygon class="st1" points="571.01,295.75 548.31,263.14 540.82,263.14 540.82,295.76 548.77,295.76 548.77,274.49 
			563.57,295.76 571.02,295.76 		"/>
	</g>
</g>
<rect x="85.04" y="238.69" class="st1" width="340.16" height="99.21"/>
<g>
	<path class="st5" d="M212.18,315.67l-1.81-2.74c-0.26,0.02-0.45,0.02-0.59,0.02h-2.3v2.71h-0.83v-8.39h3.13
		c1.05,0,1.86,0.24,2.43,0.73c0.57,0.48,0.86,1.17,0.86,2.06c0,0.7-0.17,1.28-0.5,1.74s-0.82,0.79-1.44,0.97l2.02,2.89H212.18z
		 M209.78,312.22c0.8,0,1.42-0.18,1.85-0.55c0.43-0.36,0.65-0.89,0.65-1.58c0-0.67-0.22-1.18-0.65-1.54
		c-0.43-0.35-1.05-0.53-1.85-0.53h-2.3v4.19H209.78z"/>
	<path class="st5" d="M221.71,315.67l-1-2.23h-4.66l-0.98,2.23h-0.89l3.78-8.39h0.86l3.78,8.39H221.71z M216.38,312.7h4.01
		l-2.02-4.54L216.38,312.7z"/>
	<path class="st5" d="M225.4,304.92l0.83,0.36l-1.51,1.2L224,306.4L225.4,304.92z M224.11,307.28h0.83v8.39h-0.83V307.28z"/>
	<path class="st5" d="M227.07,307.28h6.61v0.64l-5.69,7.01h5.74v0.74h-6.82v-0.65l5.7-7h-5.54V307.28z"/>
	<path class="st5" d="M244.06,308.22c-0.44-0.18-0.9-0.28-1.37-0.28c-0.65,0-1.24,0.16-1.78,0.47s-0.97,0.74-1.28,1.28
		c-0.32,0.54-0.47,1.13-0.47,1.77c0,0.64,0.16,1.23,0.47,1.76c0.32,0.54,0.74,0.96,1.28,1.28c0.54,0.32,1.13,0.47,1.78,0.47
		c0.46,0,0.92-0.09,1.36-0.27c0.44-0.18,0.83-0.43,1.18-0.75l0.5,0.54c-0.42,0.38-0.89,0.69-1.43,0.91s-1.08,0.34-1.64,0.34
		c-0.79,0-1.52-0.19-2.18-0.58s-1.19-0.9-1.58-1.56s-0.58-1.37-0.58-2.15c0-0.78,0.2-1.49,0.59-2.14c0.39-0.65,0.92-1.16,1.59-1.54
		s1.4-0.57,2.19-0.57c0.57,0,1.12,0.11,1.64,0.32c0.53,0.21,0.99,0.51,1.39,0.88l-0.49,0.58
		C244.89,308.66,244.5,308.4,244.06,308.22z"/>
	<path class="st5" d="M253.19,315.67l-1.81-2.74c-0.26,0.02-0.45,0.02-0.59,0.02h-2.3v2.71h-0.83v-8.39h3.13
		c1.05,0,1.86,0.24,2.43,0.73c0.57,0.48,0.86,1.17,0.86,2.06c0,0.7-0.17,1.28-0.5,1.74s-0.82,0.79-1.44,0.97l2.02,2.89H253.19z
		 M250.79,312.22c0.8,0,1.42-0.18,1.85-0.55c0.43-0.36,0.65-0.89,0.65-1.58c0-0.67-0.22-1.18-0.65-1.54
		c-0.43-0.35-1.05-0.53-1.85-0.53h-2.3v4.19H250.79z"/>
	<path class="st5" d="M256.46,307.28h5.62v0.74h-4.79v3h4.28v0.74h-4.28v3.16h4.94v0.74h-5.77V307.28z"/>
	<path class="st5" d="M270.64,315.67l-1-2.23h-4.66l-0.98,2.23h-0.89l3.78-8.39h0.86l3.78,8.39H270.64z M265.31,312.7h4.01
		l-2.02-4.54L265.31,312.7z"/>
	<path class="st5" d="M271.07,307.27h6.37v0.76h-2.77v7.64h-0.83v-7.64h-2.77V307.27z"/>
	<path class="st5" d="M279.02,307.28h0.83v8.39h-0.83V307.28z"/>
	<path class="st5" d="M281.37,307.28h0.89l2.99,7.48l2.98-7.48h0.88l-3.44,8.39h-0.86L281.37,307.28z"/>
	<path class="st5" d="M296.35,315.67l-1-2.23h-4.66l-0.98,2.23h-0.89l3.78-8.39h0.86l3.78,8.39H296.35z M291.02,312.7h4.01
		l-2.02-4.54L291.02,312.7z"/>
</g>
<g>
	<path class="st5" d="M136.28,266.84c2.68,1.46,4.79,3.46,6.33,6c1.54,2.54,2.3,5.4,2.3,8.56c0,3.2-0.77,6.08-2.3,8.65
		c-1.54,2.58-3.65,4.61-6.33,6.1c-2.68,1.49-5.69,2.23-9,2.23c-3.32,0-6.32-0.74-9-2.21c-2.68-1.47-4.79-3.51-6.33-6.1
		c-1.54-2.59-2.3-5.48-2.3-8.68c0-3.16,0.77-6.02,2.3-8.56c1.54-2.54,3.64-4.54,6.33-6c2.68-1.46,5.68-2.19,9-2.19
		C130.6,264.65,133.6,265.38,136.28,266.84z M122.88,273.12c-1.38,0.84-2.47,1.99-3.28,3.47c-0.81,1.47-1.21,3.09-1.21,4.86
		c0,1.8,0.41,3.44,1.23,4.91c0.82,1.47,1.92,2.64,3.28,3.49c1.36,0.85,2.85,1.28,4.47,1.28c1.61,0,3.09-0.43,4.44-1.28
		c1.35-0.85,2.41-2.02,3.19-3.49c0.77-1.47,1.16-3.11,1.16-4.91c0-1.77-0.39-3.39-1.16-4.86c-0.78-1.47-1.84-2.63-3.19-3.47
		c-1.35-0.84-2.83-1.26-4.44-1.26C125.76,271.87,124.26,272.29,122.88,273.12z"/>
	<path class="st5" d="M168.08,297.79l-4.75-9.03h-0.19H157v9.03h-8.52v-32.62h14.66c4.31,0,7.65,1,10.03,3
		c2.37,2,3.56,4.82,3.56,8.45c0,2.45-0.5,4.57-1.49,6.35c-0.99,1.78-2.44,3.17-4.33,4.16l6.79,10.66H168.08z M157,281.97h6.19
		c1.74,0,3.08-0.43,4.03-1.3c0.95-0.87,1.42-2.12,1.42-3.77c0-1.58-0.47-2.8-1.42-3.65c-0.95-0.85-2.29-1.28-4.03-1.28H157V281.97z"
		/>
	<path class="st5" d="M181.17,279.19l8.52-5.17v23.76h-8.52V279.19z"/>
	<path class="st2" d="M181.17,265.17h8.52v5.5l-8.52,5.17V265.17z"/>
	<path class="st5" d="M229.12,279.19l8.52-5.17v23.76h-8.52V279.19z"/>
	<polygon class="st2" points="229.12,265.17 237.64,265.17 237.64,270.67 229.12,275.83 	"/>
	<path class="st5" d="M346.27,279.19l8.52-5.17v23.76h-8.52V279.19z"/>
	<path class="st2" d="M346.27,265.17h8.52v5.5l-8.52,5.17V265.17z"/>
	<path class="st5" d="M216.94,281.13h7.35v12.98c-1.74,1.27-3.87,2.3-6.4,3.09c-2.53,0.79-4.93,1.19-7.19,1.19
		c-3.29,0-6.26-0.74-8.91-2.21c-2.65-1.47-4.74-3.5-6.26-6.07c-1.52-2.57-2.28-5.46-2.28-8.65c0-3.16,0.78-6.03,2.35-8.59
		c1.57-2.56,3.72-4.57,6.47-6.03c2.75-1.46,5.81-2.19,9.19-2.19c2.42,0,4.84,0.44,7.26,1.33c2.42,0.88,4.47,2.07,6.14,3.56
		l-4.84,5.96c-1.18-1.12-2.54-2-4.07-2.65c-1.54-0.65-3.05-0.98-4.54-0.98c-1.74,0-3.3,0.42-4.7,1.26c-1.4,0.84-2.5,1.99-3.3,3.44
		c-0.81,1.46-1.21,3.09-1.21,4.89c0,1.83,0.4,3.48,1.21,4.96c0.81,1.47,1.92,2.63,3.35,3.47c1.43,0.84,3.01,1.26,4.75,1.26
		c1.64,0,3.52-0.53,5.63-1.58V281.13z"/>
	<path class="st5" d="M302.63,297.79l-2.23-5.77h-14.1l-2.28,5.77h-8.75l14.01-32.62h8.75l13.68,32.62H302.63z M288.86,285.5h9.03
		l-4.47-11.63L288.86,285.5z"/>
	<path class="st5" d="M333.18,297.79l-4.75-9.03h-0.19h-6.14v9.03h-8.52v-32.62h14.66c4.31,0,7.65,1,10.03,3
		c2.37,2,3.56,4.82,3.56,8.45c0,2.45-0.5,4.57-1.49,6.35c-0.99,1.78-2.44,3.17-4.33,4.16l6.79,10.66H333.18z M322.1,281.97h6.19
		c1.74,0,3.08-0.43,4.03-1.3c0.95-0.87,1.42-2.12,1.42-3.77c0-1.58-0.47-2.8-1.42-3.65c-0.95-0.85-2.29-1.28-4.03-1.28h-6.19V281.97
		z"/>
	<path class="st5" d="M384.03,297.79l-2.23-5.77h-14.1l-2.28,5.77h-8.75l14.01-32.62h8.75l13.68,32.62H384.03z M370.26,285.5h9.03
		l-4.47-11.63L370.26,285.5z"/>
	<polyline class="st5" points="273.38,265.17 265.47,265.17 265.51,282.68 273.38,293.98 	"/>
	<polygon class="st5" points="273.38,297.78 250.68,265.17 243.18,265.17 243.18,297.79 251.14,297.79 251.14,276.51 265.94,297.79 
		273.38,297.79 	"/>
</g>
<path class="st1" d="M294.8,445.04h96.32c0.03,0,0.06,0.02,0.06,0.06v96.32H294.8V445.04z"/>
<path class="st1" d="M85.04,445.04h96.32c0.03,0,0.06,0.02,0.06,0.06v96.32H85.04V445.04z"/>
<path class="st1" d="M189.92,445.04h96.32c0.03,0,0.06,0.02,0.06,0.06v96.32h-96.38V445.04z"/>
<path class="st5" d="M133.23,503.04c-5.41,0-9.81-4.4-9.81-9.81s4.4-9.81,9.81-9.81s9.81,4.4,9.81,9.81S138.64,503.04,133.23,503.04
	z M133.23,486.36c-3.79,0-6.87,3.08-6.87,6.87s3.08,6.87,6.87,6.87s6.87-3.08,6.87-6.87S137.01,486.36,133.23,486.36z
	 M162.88,496.17c-1.39,14.09-12.62,25.32-26.71,26.71v2.95c15.71-1.41,28.25-13.95,29.66-29.66H162.88z M109.01,490.29H112
	c1.31-9.48,8.81-16.98,18.29-18.29v-2.98C119.18,470.36,110.35,479.18,109.01,490.29z M157.44,496.17h-2.98
	c-1.31,9.48-8.81,16.98-18.29,18.29v2.98C147.27,516.1,156.1,507.28,157.44,496.17z M136.17,463.58
	c14.08,1.39,25.32,12.62,26.71,26.71h2.95c-1.41-15.71-13.95-28.25-29.66-29.66V463.58z M130.29,517.44v-2.98
	c-9.48-1.31-16.98-8.81-18.29-18.29h-2.98C110.35,507.28,119.18,516.1,130.29,517.44z M130.29,522.88
	c-14.08-1.39-25.32-12.62-26.71-26.71h-2.95c1.41,15.71,13.95,28.25,29.66,29.66V522.88z M136.17,469.01V472
	c9.48,1.31,16.98,8.81,18.29,18.29h2.98C156.1,479.18,147.27,470.36,136.17,469.01z M103.58,490.29
	c1.39-14.09,12.62-25.32,26.71-26.71v-2.95c-15.71,1.41-28.25,13.95-29.66,29.66H103.58z M114.47,491.76H97.8v2.94h16.67V491.76z
	 M168.66,491.76h-16.67v2.94h16.67V491.76z M134.7,511.99h-2.94v16.67h2.94V511.99z M134.7,457.8h-2.94v16.67h2.94V457.8z"/>
<g>
	<path class="st2" d="M216.66,500.93L203.62,514c-0.22-0.05-0.45-0.08-0.69-0.08c-1.71,0-3.09,1.38-3.09,3.09s1.38,3.09,3.09,3.09
		s3.09-1.38,3.09-3.09c0-0.24-0.03-0.47-0.09-0.69l12.37-12.39C217.69,502.96,217.14,501.97,216.66,500.93z"/>
	<path class="st2" d="M251.2,485.13l-6.34,6.35c-0.6-0.27-1.27-0.43-1.97-0.43c-0.75,0-1.45,0.18-2.08,0.49l-3.01-3.02
		c0.3-0.63,0.48-1.33,0.48-2.07c0-2.68-2.17-4.85-4.85-4.85c-2.68,0-4.85,2.17-4.85,4.85c0,0.74,0.18,1.44,0.48,2.07l-5.15,5.16
		c0.22,1.23,0.61,2.4,1.12,3.5l6.35-6.36c0.63,0.3,1.32,0.47,2.06,0.47c0.73,0,1.42-0.17,2.04-0.46l3.03,3.04
		c-0.29,0.62-0.46,1.3-0.46,2.03c0,2.68,2.17,4.85,4.85,4.85c2.68,0,4.85-2.17,4.85-4.85c0-0.78-0.2-1.5-0.53-2.15l5.1-5.11
		C252.1,487.41,251.71,486.23,251.2,485.13z"/>
	<path class="st2" d="M273.29,462.22c-1.71,0-3.09,1.38-3.09,3.09c0,0.24,0.03,0.47,0.09,0.69l-12.37,12.39
		c0.62,0.95,1.16,1.95,1.64,2.98l13.04-13.07c0.22,0.05,0.45,0.08,0.69,0.08c1.71,0,3.09-1.38,3.09-3.09S275,462.22,273.29,462.22z"
		/>
	<path class="st2" d="M256.57,505.32l-1.03,1.02l-1.77-1.77c3.09-3.62,4.96-8.31,4.96-13.45c0-11.47-9.3-20.76-20.76-20.76
		c-11.47,0-20.76,9.3-20.76,20.76c0,11.47,9.3,20.76,20.76,20.76c5.16,0,9.86-1.89,13.49-5l1.76,1.77l-1.02,1.02l13.52,13.59
		c0.56,0.6,1.36,0.98,2.25,0.98c1.71,0,3.09-1.38,3.09-3.09c0-0.89-0.38-1.68-0.98-2.25L256.57,505.32z M237.98,508.16
		c-9.41,0-17.04-7.63-17.04-17.04s7.63-17.04,17.04-17.04c9.41,0,17.04,7.63,17.04,17.04S247.39,508.16,237.98,508.16z"/>
</g>
<g>
	<path class="st5" d="M334.54,488.69l16.9-10.25v47.16h-16.9V488.69z"/>
	<path class="st2" d="M334.54,460.85h16.9v10.92l-16.9,10.25V460.85z"/>
</g>
<path class="st0" d="M663.31,445.04h96.32c0.03,0,0.06,0.02,0.06,0.06v96.32h-96.38V445.04z"/>
<path class="st0" d="M453.54,445.04h96.32c0.03,0,0.06,0.02,0.06,0.06v96.32h-96.38V445.04z"/>
<path class="st0" d="M558.43,445.04h96.32c0.03,0,0.06,0.02,0.06,0.06v96.32h-96.38V445.04z"/>
<path class="st5" d="M501.73,503.04c-5.41,0-9.81-4.4-9.81-9.81s4.4-9.81,9.81-9.81s9.81,4.4,9.81,9.81S507.14,503.04,501.73,503.04
	z M501.73,486.36c-3.79,0-6.87,3.08-6.87,6.87s3.08,6.87,6.87,6.87s6.87-3.08,6.87-6.87S505.52,486.36,501.73,486.36z
	 M531.38,496.17c-1.39,14.09-12.62,25.32-26.71,26.71v2.95c15.71-1.41,28.25-13.95,29.66-29.66H531.38z M477.52,490.29h2.98
	c1.31-9.48,8.81-16.98,18.29-18.29v-2.98C487.69,470.36,478.86,479.18,477.52,490.29z M525.95,496.17h-2.98
	c-1.31,9.48-8.81,16.98-18.29,18.29v2.98C515.78,516.1,524.61,507.28,525.95,496.17z M504.67,463.58
	c14.08,1.39,25.32,12.62,26.71,26.71h2.95c-1.41-15.71-13.95-28.25-29.66-29.66V463.58z M498.79,517.44v-2.98
	c-9.48-1.31-16.98-8.81-18.29-18.29h-2.98C478.86,507.28,487.69,516.1,498.79,517.44z M498.79,522.88
	c-14.08-1.39-25.32-12.62-26.71-26.71h-2.95c1.41,15.71,13.95,28.25,29.66,29.66V522.88z M504.67,469.01V472
	c9.48,1.31,16.98,8.81,18.29,18.29h2.98C524.61,479.18,515.78,470.36,504.67,469.01z M472.08,490.29
	c1.39-14.09,12.62-25.32,26.71-26.71v-2.95c-15.71,1.41-28.25,13.95-29.66,29.66H472.08z M482.97,491.76H466.3v2.94h16.67V491.76z
	 M537.16,491.76h-16.67v2.94h16.67V491.76z M503.2,511.99h-2.94v16.67h2.94V511.99z M503.2,457.8h-2.94v16.67h2.94V457.8z"/>
<g>
	<path class="st2" d="M585.17,500.93L572.13,514c-0.22-0.05-0.45-0.08-0.69-0.08c-1.71,0-3.09,1.38-3.09,3.09s1.38,3.09,3.09,3.09
		s3.09-1.38,3.09-3.09c0-0.24-0.03-0.47-0.09-0.69l12.37-12.39C586.19,502.96,585.65,501.97,585.17,500.93z"/>
	<path class="st2" d="M619.7,485.13l-6.34,6.35c-0.6-0.27-1.27-0.43-1.97-0.43c-0.75,0-1.45,0.18-2.08,0.49l-3.01-3.02
		c0.3-0.63,0.48-1.33,0.48-2.07c0-2.68-2.17-4.85-4.85-4.85c-2.68,0-4.85,2.17-4.85,4.85c0,0.74,0.18,1.44,0.48,2.07l-5.15,5.16
		c0.22,1.23,0.61,2.4,1.12,3.5l6.35-6.36c0.63,0.3,1.32,0.47,2.06,0.47c0.73,0,1.42-0.17,2.04-0.46l3.03,3.04
		c-0.29,0.62-0.46,1.3-0.46,2.03c0,2.68,2.17,4.85,4.85,4.85s4.85-2.17,4.85-4.85c0-0.78-0.2-1.5-0.53-2.15l5.1-5.11
		C620.6,487.41,620.22,486.23,619.7,485.13z"/>
	<path class="st2" d="M641.79,462.22c-1.71,0-3.09,1.38-3.09,3.09c0,0.24,0.03,0.47,0.09,0.69l-12.37,12.39
		c0.62,0.95,1.16,1.95,1.64,2.98l13.04-13.07c0.22,0.05,0.45,0.08,0.69,0.08c1.71,0,3.09-1.38,3.09-3.09S643.5,462.22,641.79,462.22
		z"/>
	<path class="st2" d="M625.08,505.32l-1.03,1.02l-1.77-1.77c3.09-3.62,4.96-8.31,4.96-13.45c0-11.47-9.3-20.76-20.76-20.76
		s-20.76,9.3-20.76,20.76c0,11.47,9.3,20.76,20.76,20.76c5.16,0,9.86-1.89,13.49-5l1.76,1.77l-1.02,1.02l13.52,13.59
		c0.56,0.6,1.36,0.98,2.25,0.98c1.71,0,3.09-1.38,3.09-3.09c0-0.89-0.38-1.68-0.98-2.25L625.08,505.32z M606.48,508.16
		c-9.41,0-17.04-7.63-17.04-17.04s7.63-17.04,17.04-17.04s17.04,7.63,17.04,17.04S615.89,508.16,606.48,508.16z"/>
</g>
<g>
	<path class="st5" d="M703.04,488.69l16.9-10.25v47.16h-16.9V488.69z"/>
	<path class="st2" d="M703.04,460.85h16.9v10.92l-16.9,10.25V460.85z"/>
</g>
</svg>
