<?xml version="1.0" encoding="utf-8"?>
<!-- Generator: Adobe Illustrator 25.4.1, SVG Export Plug-In . SVG Version: 6.00 Build 0)  -->
<svg version="1.1" id="Layer_1" xmlns="http://www.w3.org/2000/svg" xmlns:xlink="http://www.w3.org/1999/xlink" x="0px" y="0px"
	 viewBox="0 0 120 120" style="enable-background:new 0 0 120 120;" xml:space="preserve">
<style type="text/css">
	.st0{fill:#3670B6;}
	.st1{fill:#A6C8E9;}
</style>
<path class="st0" d="M0,0h119.93c0.04,0,0.07,0.02,0.07,0.07V120H0L0,0L0,0z"/>
<g>
	<path class="st1" d="M33.29,69.59L17.06,85.86c-0.27-0.06-0.56-0.1-0.86-0.1c-2.13,0-3.85,1.72-3.85,3.85
		c0,2.13,1.72,3.85,3.85,3.85s3.85-1.72,3.85-3.85c0-0.3-0.04-0.59-0.11-0.86l15.4-15.43C34.58,72.11,33.89,70.88,33.29,69.59z"/>
	<path class="st1" d="M76.3,49.91l-7.89,7.91c-0.75-0.34-1.58-0.54-2.45-0.54c-0.93,0-1.81,0.22-2.59,0.61l-3.75-3.76
		c0.37-0.78,0.6-1.66,0.6-2.58c0-3.34-2.7-6.04-6.04-6.04c-3.34,0-6.04,2.7-6.04,6.04c0,0.92,0.22,1.79,0.6,2.58l-6.41,6.42
		c0.27,1.53,0.76,2.99,1.39,4.36L51.62,57c0.78,0.37,1.64,0.59,2.56,0.59c0.91,0,1.77-0.21,2.54-0.57l3.77,3.79
		c-0.36,0.77-0.57,1.62-0.57,2.53c0,3.34,2.7,6.04,6.04,6.04c3.34,0,6.04-2.7,6.04-6.04c0-0.97-0.25-1.87-0.66-2.68l6.35-6.36
		C77.42,52.75,76.93,51.28,76.3,49.91z"/>
	<path class="st1" d="M103.8,21.39c-2.13,0-3.85,1.72-3.85,3.85c0,0.3,0.04,0.59,0.11,0.86l-15.4,15.43
		c0.77,1.18,1.44,2.43,2.04,3.71l16.24-16.27c0.27,0.06,0.56,0.1,0.86,0.1c2.13,0,3.85-1.72,3.85-3.85S105.93,21.39,103.8,21.39z"/>
	<path class="st1" d="M82.98,75.05l-1.28,1.27l-2.2-2.2c3.85-4.51,6.18-10.35,6.18-16.75c0-14.28-11.58-25.85-25.85-25.85
		c-14.28,0-25.85,11.58-25.85,25.85c0,14.28,11.58,25.85,25.85,25.85c6.42,0,12.28-2.35,16.8-6.23l2.19,2.2l-1.27,1.27l16.83,16.92
		c0.7,0.75,1.69,1.22,2.8,1.22c2.13,0,3.85-1.72,3.85-3.85c0-1.11-0.47-2.09-1.22-2.8L82.98,75.05z M59.84,78.59
		c-11.72,0-21.22-9.5-21.22-21.22s9.5-21.22,21.22-21.22s21.22,9.5,21.22,21.22S71.55,78.59,59.84,78.59z"/>
</g>
</svg>
