<?xml version="1.0" encoding="utf-8"?>
<!-- Generator: Adobe Illustrator 25.4.1, SVG Export Plug-In . SVG Version: 6.00 Build 0)  -->
<svg version="1.1" id="Layer_1" xmlns="http://www.w3.org/2000/svg" xmlns:xlink="http://www.w3.org/1999/xlink" x="0px" y="0px"
	 viewBox="0 0 120 120" style="enable-background:new 0 0 120 120;" xml:space="preserve">
<style type="text/css">
	.st0{fill:#3670B6;}
	.st1{fill:#FFFFFF;}
	.st2{fill:#A6C8E9;}
</style>
<rect class="st0" width="120" height="120"/>
<g>
	<g>
		<path class="st1" d="M46.61,13.83c2.68,1.46,4.79,3.46,6.33,6c1.54,2.54,2.3,5.4,2.3,8.56c0,3.2-0.77,6.08-2.3,8.65
			c-1.54,2.58-3.65,4.61-6.33,6.1c-2.68,1.49-5.69,2.23-9,2.23c-3.32,0-6.32-0.74-9-2.21s-4.79-3.51-6.33-6.1
			c-1.54-2.59-2.3-5.48-2.3-8.68c0-3.16,0.77-6.02,2.3-8.56c1.54-2.54,3.64-4.54,6.33-6c2.68-1.46,5.68-2.19,9-2.19
			C40.94,11.64,43.94,12.37,46.61,13.83z M33.21,20.11c-1.38,0.84-2.47,1.99-3.28,3.47c-0.81,1.47-1.21,3.09-1.21,4.86
			c0,1.8,0.41,3.44,1.23,4.91s1.92,2.64,3.28,3.49c1.36,0.85,2.85,1.28,4.47,1.28c1.61,0,3.09-0.43,4.44-1.28s2.41-2.02,3.19-3.49
			c0.77-1.47,1.16-3.11,1.16-4.91c0-1.77-0.39-3.39-1.16-4.86c-0.78-1.47-1.84-2.63-3.19-3.47s-2.83-1.26-4.44-1.26
			C36.09,18.86,34.59,19.28,33.21,20.11z"/>
		<path class="st1" d="M78.4,44.78l-4.75-9.03h-0.19h-6.14v9.03H58.8V12.16h14.66c4.31,0,7.65,1,10.03,3c2.37,2,3.56,4.82,3.56,8.45
			c0,2.45-0.5,4.57-1.49,6.35s-2.44,3.17-4.33,4.16l6.79,10.66H78.4z M67.33,28.96h6.19c1.74,0,3.08-0.43,4.03-1.3
			c0.95-0.87,1.42-2.12,1.42-3.77c0-1.58-0.47-2.8-1.42-3.65c-0.95-0.85-2.29-1.28-4.03-1.28h-6.19V28.96z"/>
		<path class="st1" d="M91.5,26.18l8.52-5.17v23.76H91.5V26.18z"/>
		<path class="st2" d="M91.5,12.16h8.52v5.5l-8.52,5.17V12.16z"/>
	</g>
	<g>
		<g>
			<path class="st2" d="M38.79,108.35l-1.54-3.98h-9.72l-1.57,3.98h-6.03l9.66-22.49h6.03l9.43,22.49H38.79z M29.3,99.88h6.22
				l-3.08-8.02L29.3,99.88z"/>
			<path class="st2" d="M59.86,108.35l-3.27-6.22h-0.13h-4.24v6.22h-5.87V85.86h10.11c2.97,0,5.28,0.69,6.91,2.07
				c1.64,1.38,2.45,3.32,2.45,5.82c0,1.69-0.34,3.15-1.03,4.38s-1.68,2.19-2.98,2.87l4.68,7.35L59.86,108.35L59.86,108.35z
				 M52.22,97.44h4.27c1.2,0,2.12-0.3,2.78-0.9c0.65-0.6,0.98-1.46,0.98-2.6c0-1.09-0.33-1.93-0.98-2.52
				c-0.65-0.59-1.58-0.88-2.78-0.88h-4.27V97.44z"/>
		</g>
		<g>
			<path class="st1" d="M67.76,95.53l5.87-3.56v16.38h-5.87V95.53z"/>
			<path class="st2" d="M67.76,85.86h5.87v3.79l-5.87,3.56V85.86z"/>
			<path class="st1" d="M93.8,108.35l-1.54-3.98h-9.72l-1.57,3.98h-6.03l9.66-22.49h6.03l9.43,22.49H93.8z M84.3,99.88h6.22
				l-3.08-8.02L84.3,99.88z"/>
		</g>
	</g>
	<g>
		<path class="st1" d="M55.79,63.03l8.52-5.17v23.76h-8.52V63.03z"/>
		<polygon class="st2" points="55.79,49.01 64.31,49.01 64.31,54.51 55.79,59.68 		"/>
		<path class="st1" d="M43.61,64.97h7.35v12.98c-1.74,1.27-3.87,2.3-6.4,3.09c-2.53,0.79-4.93,1.19-7.19,1.19
			c-3.29,0-6.26-0.74-8.91-2.21c-2.65-1.47-4.74-3.5-6.26-6.07c-1.52-2.57-2.28-5.46-2.28-8.65c0-3.16,0.78-6.03,2.35-8.59
			c1.57-2.56,3.72-4.57,6.47-6.03s5.81-2.19,9.19-2.19c2.42,0,4.84,0.44,7.26,1.33c2.42,0.88,4.47,2.07,6.14,3.56l-4.84,5.96
			c-1.18-1.12-2.54-2-4.07-2.65c-1.54-0.65-3.05-0.98-4.54-0.98c-1.74,0-3.3,0.42-4.7,1.26s-2.5,1.99-3.3,3.44
			c-0.81,1.46-1.21,3.09-1.21,4.89c0,1.83,0.4,3.48,1.21,4.96c0.81,1.47,1.92,2.63,3.35,3.47s3.01,1.26,4.75,1.26
			c1.64,0,3.52-0.53,5.63-1.58L43.61,64.97L43.61,64.97z"/>
		<polygon class="st1" points="100.06,49.01 92.15,49.01 92.19,66.52 100.05,77.82 		"/>
		<polygon class="st1" points="100.05,81.62 77.35,49.01 69.86,49.01 69.86,81.63 77.81,81.63 77.81,60.36 92.61,81.63 
			100.06,81.63 		"/>
	</g>
</g>
</svg>
