<?xml version="1.0" encoding="utf-8"?>
<!-- Generator: Adobe Illustrator 25.4.1, SVG Export Plug-In . SVG Version: 6.00 Build 0)  -->
<svg version="1.1" id="Layer_1" xmlns="http://www.w3.org/2000/svg" xmlns:xlink="http://www.w3.org/1999/xlink" x="0px" y="0px"
	 viewBox="0 0 120 120" style="enable-background:new 0 0 120 120;" xml:space="preserve">
<style type="text/css">
	.st0{fill:#3670B6;}
	.st1{fill:#A6C8E9;}
</style>
<path class="st0" d="M0,0h119.93c0.04,0,0.07,0.02,0.07,0.07V120H0V0z"/>
<path class="st1" d="M60,72.21c-6.74,0-12.21-5.48-12.21-12.21S53.26,47.79,60,47.79S72.21,53.27,72.21,60S66.74,72.21,60,72.21z
	 M60,51.45c-4.72,0-8.55,3.83-8.55,8.55s3.83,8.55,8.55,8.55s8.55-3.83,8.55-8.55S64.71,51.45,60,51.45z M96.92,63.66
	C95.19,81.2,81.2,95.19,63.66,96.92v3.67c19.56-1.76,35.17-17.37,36.93-36.93C100.59,63.66,96.92,63.66,96.92,63.66z M29.84,56.34
	h3.72c1.63-11.8,10.97-21.14,22.77-22.77v-3.71C42.51,31.53,31.51,42.51,29.84,56.34z M90.14,63.66h-3.71
	C84.8,75.46,75.46,84.8,63.66,86.43v3.71C77.48,88.47,88.47,77.49,90.14,63.66z M63.66,23.08c17.53,1.73,31.53,15.71,33.26,33.26
	h3.67c-1.76-19.56-17.37-35.17-36.93-36.93C63.66,19.41,63.66,23.08,63.66,23.08z M56.34,90.14v-3.71
	C44.54,84.8,35.2,75.46,33.57,63.66h-3.71C31.51,77.49,42.51,88.47,56.34,90.14z M56.34,96.92C38.81,95.19,24.81,81.2,23.08,63.66
	h-3.67c1.76,19.56,17.37,35.17,36.93,36.93V96.92z M63.66,29.84v3.72c11.8,1.63,21.14,10.97,22.77,22.77h3.71
	C88.47,42.51,77.48,31.53,63.66,29.84z M23.08,56.34C24.81,38.8,38.8,24.81,56.34,23.08v-3.67c-19.56,1.76-35.17,17.37-36.93,36.93
	H23.08z M36.64,58.17H15.89v3.66h20.76v-3.66H36.64z M104.11,58.17H83.36v3.66h20.76v-3.66H104.11z M61.83,83.36h-3.66v20.76h3.66
	V83.36z M61.83,15.89h-3.66v20.76h3.66V15.89z"/>
</svg>
